<?xml version="1.0" standalone="no"?>
<!DOCTYPE svg PUBLIC "-//W3C//DTD SVG 1.1//EN" "http://www.w3.org/Graphics/SVG/1.1/DTD/svg11.dtd" >
<svg xmlns="http://www.w3.org/2000/svg">
<metadata></metadata>
<defs>
<font id="central_union_mission_filleRg" horiz-adv-x="1361" >
<font-face units-per-em="2048" ascent="1638" descent="-410" />
<missing-glyph horiz-adv-x="624" />
<glyph horiz-adv-x="2048" />
<glyph horiz-adv-x="2048" />
<glyph unicode="&#xd;" horiz-adv-x="2048" />
<glyph unicode=" "  horiz-adv-x="624" />
<glyph unicode="&#x09;" horiz-adv-x="624" />
<glyph unicode="&#xa0;" horiz-adv-x="624" />
<glyph unicode="0" horiz-adv-x="1363" d="M113 504q40 -209 192 -361q173 -150 414 -129q229 18 373 181q75 86 108 175.5t33 198.5v295v310v65q-17 202 -180 346q-182 162 -424 144q-213 -19 -375 -181q-141 -163 -141 -374v-605v-65zM446 582v297v282q0 78 66 168q107 87 219 51q68 -20 108 -60t60 -108v-63 v-555q0 -132 -90 -205q-60 -48 -142.5 -43.5t-142.5 55.5q-78 78 -78 181z" />
<glyph unicode="1" horiz-adv-x="899" d="M127 1274q108 -125 113 -131q30 -35 36 -41q35 -32 74 -4q6 4 29 22q14 10 27 17q31 13 40 -21q7 -28 7 -49v-981q0 -23 2 -33q3 -25 14.5 -36.5t36.5 -14.5q6 -2 20 -2h187q12 0 28 4q34 6 41 39q4 28 4 43v717v706q0 20 -4 60q-9 78 -78.5 120t-142.5 13 q-9 -3 -18.5 -8t-15.5 -8.5t-17 -12t-14 -10.5t-16.5 -13t-14.5 -12q-22 -19 -88 -75.5t-101 -87.5q-29 -24 -83.5 -72.5t-59.5 -52.5q-37 -34 -6 -76z" />
<glyph unicode="2" horiz-adv-x="1228" d="M113 90q0 -58 15.5 -74t74.5 -16h454h469h25q49 15 66 51v27v170q0 56 -20 73t-71 17h-571h-53q-25 25 -25 51q-11 11 -11 27t11 26q35 124 180 168q42 13 119 13q225 43 350 182q144 162 144 403q-20 242 -221 404q-149 129 -377 129q-205 -17 -365 -156 q-126 -129 -168 -325q-20 -91 78 -91h168q48 0 65.5 12t38.5 54v12q25 70 86.5 110.5t134.5 39.5t130 -45q45 -45 68.5 -87t23.5 -96q-10 -76 -61 -131.5t-121 -76.5h-105q-259 -42 -403 -220q-129 -172 -129 -352v-299z" />
<glyph unicode="3" horiz-adv-x="1222" d="M113 500q41 -212 192 -346q178 -161 449 -142q225 23 358 193q132 173 115 397q-8 72 -36 133.5t-79 134.5q-29 29 -31 53t17 62h14q64 135 64 256q0 57 -18 120.5t-46 111.5q-80 159 -231 217q-118 51 -256 51q-250 -38 -383 -230q-61 -123 -78 -231q0 -50 15.5 -70 t62.5 -20h178h39q39 22 39 39q12 12 12 51q1 2 7 16t9 19.5t8.5 16t12 16.5t14.5 10q58 56 137.5 42.5t118.5 -81.5q37 -75 0 -149t-115 -95q-14 0 -46 -6t-44 -6q-39 0 -39 -39v-25v-204v-27q0 -39 39 -39h39q13 -6 38.5 -6t37.5 -6q47 -4 85.5 -30.5t57 -65t21 -84 t-22.5 -88.5q-66 -86 -153 -103q-82 0 -139 25.5t-93 89.5q-11 12 -17 24.5t-11 29t-9 24.5q-20 36 -51 36h-116h-89h-38q-39 -17 -39 -51v-24z" />
<glyph unicode="4" horiz-adv-x="1302" d="M113 844q0 -48 16.5 -63t73.5 -15h274h299h25q39 -17 39 -51q14 -12 14 -39v-586v-39q0 -34 39 -51h39h180h27q39 17 39 39q12 12 12 51v780v754v51q0 37 -16 51.5t-48 14.5h-26h-168q-50 0 -64 -14.5t-14 -63.5v-506v-39q-12 -35 -27.5 -50t-50.5 -15h-14h-221 q-50 0 -70 15t-20 62v521v24q0 40 -13 53t-53 13h-12h-183q-49 0 -63 -14t-14 -64v-819z" />
<glyph unicode="5" horiz-adv-x="1353" d="M113 516q0 -14 6 -39t6 -39q38 -134 117.5 -225t206.5 -150q106 -47 219 -47t219 47q118 50 196.5 131t124.5 205q76 210 -24 414q-86 146 -207 231q-119 78 -258 78q-99 0 -156 13h-39q-37 0 -37 39q-6 5 -9.5 11.5t-3.5 10.5l-1 4v115q0 49 21 69.5t69 20.5h438h27 q29 0 47.5 18t18.5 47v25v156q0 56 -20 73t-73 17h-385h-401q-48 0 -62 -14.5t-14 -63.5v-786q0 -50 15.5 -70.5t60.5 -20.5h438h66q77 -20 128.5 -79.5t51.5 -126.5q0 -87 -78 -168q-48 -48 -125 -55.5t-145 30.5q-26 26 -39.5 40.5t-29 39.5t-21.5 49q-21 40 -37 52 t-53 12h-168h-39q-51 0 -51 -64z" />
<glyph unicode="6" d="M113 512q61 -322 333 -449q76 -38 167.5 -47.5t177.5 11.5q229 55 358 241q97 150 78 334q0 135 -51 217q-85 171 -232 244q-88 48 -187 65t-196 -2q-27 -12 -63 -12q-22 0 -37 10t-15 29q0 79 52 154q57 77 154 84t165 -60q25 -25 35.5 -36.5t22.5 -32.5t18 -45 q0 -21 18.5 -36.5t46.5 -15.5h230q39 17 39 39v37q-41 232 -205 358q-195 154 -422 117q-228 -23 -358 -192q-129 -146 -129 -359v-295v-295v-63zM446 575q0 89 68 154.5t162 65.5q88 0 152.5 -62.5t64.5 -157.5q0 -92 -63.5 -156t-153.5 -73q-95 0 -162.5 67t-67.5 162z " />
<glyph unicode="7" horiz-adv-x="1449" d="M113 51q0 -25 12 -39q7 0 20 -6t19 -6h258q18 0 36 8.5t27.5 17t26.5 25.5q6 11 40.5 74.5t49.5 93.5q156 258 234 399q47 72 153 259l156 270q23 35 45 73t51 91.5t45 81.5q5 7 15.5 21t14.5 21t10 18t8.5 21t2.5 21v156q0 51 -17 70.5t-73 19.5h-516h-528h-27 q-31 -10 -47 -24t-16 -40v-14v-193v-26q19 -39 39 -39h51q387 0 594 -12h39q19 0 26 -16.5t-2 -35.5q-6 -6 -12 -19t-12 -19q-45 -78 -136.5 -232.5t-136.5 -232.5q-148 -274 -244 -412q-26 -54 -84.5 -157t-82.5 -152q-22 -49 -39 -66z" />
<glyph unicode="8" horiz-adv-x="1468" d="M115 465q41 -197 168 -324q137 -111 270 -129q53 -12 182 -12h103q106 0 180 39q234 94 309 321q59 195 -12 375q-14 26 -39 71.5t-39 70.5q-22 22 -26 40.5t14 49.5q6 12 39 77q77 194 0 388q-59 154 -195 231q-126 78 -231 78h-168q-102 0 -193 -39q-189 -75 -272 -258 q-76 -209 0 -400q28 -54 39 -90q38 -38 0 -77q-25 -25 -25 -39q-66 -84 -89.5 -174t-14.5 -199zM451 541q9 68 60.5 119.5t119.5 62.5h219q70 -11 119 -65t49 -130q0 -70 -53 -125t-127 -55h-103v-12q-78 0 -117 12q-75 9 -121 65.5t-46 127.5zM514 1225q-9 47 20.5 97 t71.5 71q37 12 129 12q76 0 115 -12q49 -20 76.5 -57.5t27.5 -84.5q17 -92 -65 -155q-81 -25 -103 -25h-116q-68 9 -112 52.5t-44 101.5z" />
<glyph unicode="9" d="M115 516q0 -83 39 -141q56 -185 233 -285q125 -71 270 -90q156 0 297 78q128 55 205 192q90 123 90 310v284v283q0 53 -12 78q-9 107 -58.5 200t-134.5 160q-163 163 -426 144q-283 -39 -425 -285q-96 -155 -78 -348q41 -252 245 -400q208 -126 412 -90q27 12 78 12 q27 10 39 -2t12 -36q0 -73 -39 -129q-29 -59 -97 -91t-134 -12q-61 21 -100.5 53t-67.5 88q0 40 -12 52q-6 13 -18 19t-20 6.5t-26 0.5h-194h-27q-13 -4 -22 -10.5t-11.5 -9t-9.5 -16t-8 -15.5zM451 1161q0 89 68.5 160.5t162.5 71.5q89 0 154 -68t65 -164 q0 -88 -65.5 -153.5t-153.5 -65.5q-96 0 -163.5 65t-67.5 154z" />
<glyph unicode="A" horiz-adv-x="1435" d="M113 59q0 -35 15.5 -47t45.5 -12h8h183h34q13 0 22 7t23 28v43v497q0 76 78 76h8h375q55 0 70.5 -18t15.5 -66v-489v-43q14 -21 24 -28t29 -7h27h182h35q20 0 27.5 7.5t7.5 27.5v53v991v115q-44 239 -217 391q-94 79 -214 114q-80 23 -163 23q-43 0 -86 -6 q-220 -15 -383 -192q-147 -177 -147 -410v-514v-512v-29zM444 985q0 103 9 182q11 94 78 149t165 68q10 1 20 1q84 1 152 -45q76 -50 115 -138q8 -27 8 -104v-88v-35q-14 -43 -51 -43h-27h-190h-201h-18q-27 0 -43.5 13.5t-16.5 39.5z" />
<glyph unicode="B" horiz-adv-x="1447" d="M113 86q0 -50 17.5 -67t66.5 -17h604q46 0 69 4q204 28 332 176q133 155 133 344q0 81 -24 168q-22 81 -101 183q-16 22 -16 45q0 20 12 41q4 10 14.5 29.5t14.5 29.5q47 100 47 208q0 32 -4 64q-28 198 -172 322q-140 122 -322 125q0 1 -296 1l-295 -1q-11 0 -35 -4 q-35 -6 -41 -41q-4 -28 -4 -43v-781v-786zM453 416v229v4q2 39 17.5 55.5t53.5 16.5q0 1 48 0.5t49 -0.5h41q36 1 66 1q60 0 95 -3q65 -4 112.5 -51.5t55.5 -112.5q1 -12 1 -24q0 -52 -28 -97q-35 -56 -98 -78q-47 -14 -82 -14q0 -1 -57 -1h-71l-128 1q-20 0 -32 4 q-32 6 -39 39q-4 20 -4 31zM453 1143v180q0 5 1 15.5t1 15.5q5 20 15 30.5t32 14.5q8 2 28 2h224q87 0 135 -51q51 -53 51 -113q0 -29 -12 -59q-37 -100 -135 -109q-22 -3 -59 -4t-63 -1l-26 1h-115q-14 0 -34 4q-32 7 -39 39q-4 20 -4 35z" />
<glyph unicode="C" horiz-adv-x="1349" d="M113 561q0 -47 4 -72q41 -268 266 -407q134 -82 295 -82h22q144 6 273 84q169 103 233 287q15 45 31 125q1 6 1 11q0 32 -21 44q-18 12 -41 12q-52 2 -103 1.5t-102 -1.5q-30 0 -46.5 -12.5t-25.5 -40.5q-21 -70 -76 -119q-49 -43 -121 -53q-17 -2 -33 -1q-53 0 -96 23 q-124 70 -127 209v592q0 111 93 185q51 40 113 48q13 2 25 1q49 1 97 -23q60 -30 98 -92q10 -17 33 -78q13 -29 43 -37q10 -2 33 -2h184q21 0 31 2q36 9 39 43q3 17 0 35q-16 124 -80 221q-153 235 -426 262q-30 3 -59 3q-139 0 -256 -64q-292 -165 -301 -496v-303v-305z " />
<glyph unicode="D" d="M113 86q0 -51 18 -68.5t70 -17.5h481q24 0 70 4q201 27 338 170q156 162 159 383v625q0 21 -4 61q-27 208 -184 350q-159 143 -361 146q-76 1 -160.5 1t-187.5 -0.5t-159 -0.5q-11 0 -35 -4q-35 -6 -41 -41q-4 -28 -4 -43v-781v-784zM451 438v432v420v33q2 43 18.5 60.5 t58.5 17.5q117 0 174 -4q82 -6 140.5 -66t64.5 -143q4 -46 4 -72v-526q0 -81 -32 -133q-62 -106 -181 -115q-51 -3 -108 -3q-35 0 -72 1q-33 0 -48 15t-17 48q-2 12 -2 35z" />
<glyph unicode="E" horiz-adv-x="1183" d="M113 874q0 -522 2 -782q0 -29 2 -43q6 -35 41 -41q28 -4 43 -4h770h33q64 3 67 66v209q-3 62 -65 65h-19h-98h-365q-38 0 -54.5 16.5t-18.5 53.5v239q2 35 18 52t51 18h39h172q70 0 70 70v200q0 67 -70 70h-20h-181q-14 0 -34 4q-35 6 -41 41q-4 20 -4 31v192 q0 41 17 58.5t58 17.5h33h365h51q63 3 63 66q2 52 2 103.5t-2 102.5q0 32 -15 47.5t-48 18.5h-14h-768q-11 0 -35 -4q-35 -6 -41 -41q-2 -14 -2 -43q-2 -260 -2 -783z" />
<glyph unicode="F" horiz-adv-x="1056" d="M113 68q2 -34 17.5 -50.5t49.5 -17.5h19h163q53 0 70.5 17t18.5 69v549q0 25 2 37q6 37 45 43q20 4 32 4h195q40 0 57 17t17 57v4q0 20 0.5 57.5t0.5 68t-1 56.5q0 23 -2 33q-6 37 -43 43q-24 4 -35 4h-195q-34 4 -51 14q-22 11 -22 57q-2 50 -1.5 100.5t1.5 100.5 q0 37 16 54t53 18h35h387h47q33 3 48.5 18t15.5 47q2 52 1.5 104.5t-1.5 104.5q0 58 -64 64h-14h-782q-13 0 -37 -4q-32 -7 -39 -39q-4 -16 -4 -45v-783v-749v-53z" />
<glyph unicode="G" horiz-adv-x="1347" d="M112 1068.5q0 -50.5 0.5 -111.5t0.5 -93v-309q0 -24 4 -74q19 -123 80 -217q121 -186 327 -244q76 -20 151 -20q108 0 214 43q208 88 301 301q42 93 45 231q1 5 1 48v53q-1 93 -1 100q0 50 -16.5 67t-67.5 17h-393q-17 0 -25 -2q-29 -3 -42.5 -16.5t-16.5 -42.5 q-2 -8 -2 -23v-139q2 -50 18.5 -67t65.5 -17q59 0 88 -2q46 -5 46 -40q0 -12 -5 -26q-15 -48 -68 -98q-48 -42 -121 -51q-15 -1 -30 -1q-55 0 -99 25q-123 72 -123 211v574q0 110 80 184q59 56 147 56q1 0 2 -1q89 0 150 -57q53 -53 72 -115q7 -37 33 -47q16 -8 43 -8 q47 -1 95 -1t97 1q19 0 29 4q32 6 35 37q4 21 2 35q-15 96 -45 156q-140 293 -459 327q-33 4 -65 4q-133 0 -248 -65q-290 -159 -299 -492q-1 -44 -1 -94.5z" />
<glyph unicode="H" horiz-adv-x="1460" d="M113 66q0 -66 65 -66h12h170q47 0 69 21.5t22 68.5v598q0 43 15 60.5t62 17.5h390q53 0 72.5 -17t19.5 -73v-586v-24q0 -30 13 -43.5t52 -22.5h12h183h39q24 24 39 51v39v780v754v51q0 37 -17 51.5t-49 14.5h-12h-183q-49 0 -63 -14t-14 -64v-533q0 -77 -78 -77h-14h-390 q-50 0 -63.5 16t-13.5 74v508v24q-9 39 -22.5 52.5t-43.5 13.5h-12h-183h-38q-39 0 -39 -39v-51v-1534v-51z" />
<glyph unicode="I" horiz-adv-x="991" d="M113 90q0 -51 15.5 -70.5t61.5 -19.5h308h268h39q39 9 51 23.5t12 52.5v14v166v39q0 39 -37 39q-7 0 -19.5 6t-18.5 6h-64q-38 0 -53.5 13t-24.5 51v12v897q0 6 6.5 19t6.5 20q0 37 38 37h27h76q38 11 50.5 23.5t12.5 41.5q10 55 10 106.5t-10 98.5q0 38 -12.5 51 t-50.5 13q0 9 -1.5 10.5t-10.5 1.5h-603q-6 0 -19 -6t-19 -6q-39 0 -39 -39v-25v-192v-27q0 -37 39 -37q12 -14 51 -14h78q38 0 38 -37v-27v-921q0 -38 -13.5 -51t-51.5 -13h-64q-12 0 -26 -12q-28 0 -39.5 -12t-11.5 -41v-25v-166z" />
<glyph unicode="J" horiz-adv-x="1359" d="M113 496q28 -223 196 -363q158 -134 360 -134q21 0 42 1q216 12 370 166q91 91 136 221q30 91 30 215v512v528q0 17 -4 41q-5 37 -45 43q-15 5 -43 5h-487h-19q-63 -6 -63 -64q-2 -53 -2 -104.5t2 -102.5q0 -32 15 -47t48 -18h23h157q11 0 35 -4q35 -6 41 -41 q2 -12 2 -39v-707q0 -41 -2 -61q-18 -144 -153 -193q-41 -15 -79 -15q-82 0 -155 66q-45 42 -69 117q-12 41 -56 47q-3 0 -9.5 1t-10.5 1h-193q-68 0 -68 -57q0 -6 1 -14z" />
<glyph unicode="K" horiz-adv-x="1419" d="M113 90q0 -17 4 -41q6 -39 45 -45q20 -4 31 -4h184q11 0 35 4q34 10 39 41q4 14 4 43q1 97 1 288.5t1 287.5q0 22 2 34q6 41 47 47q34 3 65 3q123 0 246 -3q86 -6 125 -92q23 -56 23 -125v-444q0 -41 17.5 -58.5t57.5 -19.5h195q37 2 54.5 19t17.5 53q0 352 -4 526 q0 114 -62 225q-32 54 -78 113q-17 25 -17 51q0 19 9 39q57 114 57 249v13v359q0 23 -2 33q-3 26 -15 38t-38 15q-10 2 -27 2h-174q-51 0 -68.5 -17.5t-17.5 -68.5v-359q0 -75 -34 -122q-54 -71 -150 -74h-145q-51 0 -67.5 17.5t-16.5 68.5q-2 156 -2 467v33q-4 26 -17 38 t-39 15q-8 2 -22 2h-184q-13 0 -33 -4q-37 -6 -43 -43q-4 -24 -4 -41v-781v-782z" />
<glyph unicode="L" horiz-adv-x="1165" d="M113 86q0 -52 16.5 -69t69.5 -17h768h24q31 3 45 16.5t17 44.5v23v166q0 52 -16.5 69t-69.5 17h-435q-12 0 -36 4q-37 6 -43 43q-4 32 -4 53v1215q0 19 -3 37q-3 23 -14.5 34.5t-34.5 14.5q-8 2 -26 2q-46 2 -91 1.5t-90 -1.5q-22 0 -34 -2q-34 -10 -39 -41 q-4 -14 -4 -43v-783v-784z" />
<glyph unicode="M" horiz-adv-x="1802" d="M113 88q0 -23 2 -33q5 -25 16.5 -37t36.5 -16q3 0 12 -1t13 -1h180q13 0 33 4q34 6 40 41q5 35 5 45v1026v117q3 76 49 119q36 31 80 35q6 1 12 1q38 0 71 -22q39 -25 56 -72q12 -35 12 -92q2 -371 2 -1112q0 -23 2 -35q3 -25 15 -37t38 -16q3 0 10 -1t11 -1h184 q13 0 33 4q34 10 39 41q4 14 4 45v1122q0 18 4 54q6 46 37.5 78t75.5 40q14 3 27 3q29 1 55 -13q39 -20 61 -61q23 -42 23 -105v-1116v-24q2 -34 17.5 -50.5t49.5 -17.5h19h164q52 0 70 17.5t18 68.5q0 766 -2 1147q0 49 -2 74q-24 186 -164 305q-133 115 -310 115 q-36 0 -73 -5q-98 -11 -193 -71q-23 -15 -47 -15l-43 13q-17 12 -65 37q-90 41 -193 42q-29 0 -59 -4q-197 -21 -320 -174q-106 -129 -106 -307q1 -84 1 -178.5t-0.5 -210t-0.5 -178.5v-588z" />
<glyph unicode="N" horiz-adv-x="1509" d="M113 55q5 -26 17 -38t38 -15q6 -2 18 -2h189q11 0 31 4q33 6 40 39q5 35 5 43v815q0 34 6 64q0 6 4.5 13t9.5 9q11 4 25 -10q41 -58 43 -62l278 -491q17 -30 89.5 -156t109.5 -194q43 -76 119 -76h10q27 2 172 2q23 0 33 2q37 6 43 43q4 28 4 43v1559v24q-3 31 -18 46 t-44 18h-14h-186q-11 0 -31 -4q-35 -6 -41 -41q-4 -14 -4 -43v-838q0 -36 -6 -66q-5 -18 -19 -22q-9 -3 -24 12q-11 11 -27 39q-46 78 -131 226.5t-102 177.5l-289 501q-34 58 -99 58q-25 -1 -54 -1t-64 0.5t-54 0.5q-10 0 -34 -4q-33 -7 -39 -41q-4 -12 -4 -43v-779v-780 v-33z" />
<glyph unicode="O" horiz-adv-x="1337" d="M113 500q39 -279 268 -410q125 -81 273 -81q29 0 59 3q212 20 334 142q178 161 178 409v295v307v64q-19 147 -96.5 258t-210.5 178q-121 55 -238 55q-132 0 -260 -69q-307 -153 -307 -486v-602v-63zM444 575v15v268v295q0 86 52 154q48 49 112 65q30 8 61 7q34 0 70 -9 q136 -59 154 -192v-52v-536q0 -106 -51 -154q-60 -80 -156 -90q-12 -1 -23 -1q-81 0 -141 65q-78 60 -78 165z" />
<glyph unicode="P" horiz-adv-x="1384" d="M113 66q0 -32 13.5 -49t49.5 -17h14h168q59 0 75 16t16 74v469v39q0 17 13.5 28t26.5 11q6 0 19 6t20 6q30 0 85.5 -2.5t101 -2.5t86.5 5q167 0 311 144q79 79 117 168q43 116 43 237q0 38 -4 76q-19 204 -168 338q-152 129 -326 129h-584h-38q-39 -17 -39 -51v-39v-781 v-780v-24zM449 1026v39v131v129v27q0 9 5 17.5t9.5 12.5t14 11.5t11.5 9.5h39h207q99 0 153 -74q44 -60 44 -129q0 -15 -2 -31q-10 -57 -26.5 -92.5t-51.5 -62.5q-39 -27 -117 -27h-221h-25q-13 0 -26.5 10.5t-13.5 28.5z" />
<glyph unicode="Q" horiz-adv-x="1419" d="M113 612q0 -63 2 -96q9 -109 57 -197q68 -133 193 -215q141 -91 304 -91q39 0 79 5q22 3 129 33q26 9 51 9q18 0 35 -5q54 -15 104 -24q96 -15 162 -17h4q38 0 55 16q17 18 17 58v10q0 109 2 164q0 42 -14 62.5t-52 27.5q-35 5 -35 43v6l6 33q17 72 17 154v278v133 q0 167 -4 215q-9 178 -133 318q-169 190 -411 190q-41 0 -85 -6q-228 -27 -369 -213q-114 -143 -114 -338v-553zM446 586v284v277q0 98 58 164q64 67 149 73q10 1 20 1q84 0 149 -59q72 -67 73 -169v-575q-3 -141 -119 -205q-52 -27 -105 -27q-34 0 -69 11q-88 29 -131 114 q-25 55 -25 111z" />
<glyph unicode="R" horiz-adv-x="1390" d="M113 63q0 -27 15 -39.5t48 -23.5h14h191q15 0 27 12q38 0 38 39v25v141v436q0 76 76 76h269q102 0 141 -102q12 -39 12 -115v-410v-26q0 -36 17 -50t49 -14h24h166q50 0 64 14t14 64v447v77q-20 152 -90 256q-11 11 -15 27.5t3 36.5q0 27 12 39q81 131 81 278q0 28 -3 56 q-19 170 -168 319q-154 115 -320 115h-588h-26q-34 0 -51 -39v-37v-795v-780v-27zM446 1153v178q0 45 18 61.5t58 16.5h115h141q56 0 100.5 -47t53.5 -107q0 -60 -35.5 -109t-91.5 -59q-27 -12 -66 -12h-217h-24q-39 17 -39 51q-13 0 -13 27z" />
<glyph unicode="S" horiz-adv-x="1417" d="M113 496q0 -15 4 -47q22 -160 123 -269q118 -127 301 -166q51 -11 144 -11q26 0 56 1h131q179 15 304 131q189 166 189 402q0 39 -5 81q-35 259 -258 396q-125 77 -281 80q-22 1 -47 1t-55.5 -0.5t-46.5 -0.5q-94 3 -140 71q-24 37 -24 76q0 32 16 65q36 74 117 83 q40 3 80 3l80 -3q108 -6 143 -101q0 -4 4 -8q15 -34 51 -37q6 -2 23 -2q50 -2 100 -1.5t101 1.5q67 0 67 61v11q-14 107 -53 176q-124 216 -387 244q-24 3 -53.5 4t-50.5 1t-55.5 -0.5t-51.5 -0.5q-19 0 -55 -4q-177 -27 -297 -162q-125 -145 -125 -319q0 -31 4 -62 q30 -267 272 -391q99 -51 232 -54q16 0 45 0.5t53 0.5t45 -1q122 -3 178 -100q27 -49 27 -98q0 -45 -22 -89q-46 -94 -150 -108q-52 -6 -102 -6q-64 0 -123 10q-104 18 -144 92q-10 20 -18 52q-15 47 -49 47q-63 1 -126 1l-126 -1q-20 0 -31.5 -13.5t-13.5 -35.5z" />
<glyph unicode="T" horiz-adv-x="1384" d="M113 1487q0 -49 17.5 -66.5t66.5 -17.5h243q13 0 37 -4q34 -6 41 -39q4 -28 4 -41v-614v-617q0 -25 2 -37q5 -22 16 -33t33 -14q20 -4 27 -4h182q5 1 16.5 2t16.5 2q35 6 41 41q4 28 4 45v1204v39q1 36 17.5 52t52.5 18h20h242q13 0 37 4q33 6 39 41q4 10 4 31v186 q0 21 -2 29q-6 39 -45 45q-12 2 -39 2h-985h-25q-31 -3 -45.5 -17.5t-17.5 -46.5v-18v-172z" />
<glyph unicode="U" horiz-adv-x="1454" d="M113 614q0 -20 6 -65t6 -64q56 -183 192 -319q152 -134 359 -154q31 -3 61 -3q160 0 285 81q156 85 256 268q63 145 63 269v1024v39q-17 39 -51 39q-9 9 -12 10.5t-12 1.5h-193q-12 0 -26 -12q-37 0 -37 -39q0 -6 -7.5 -19t-7.5 -20v-1012v-37q-9 -116 -93 -191 q-75 -66 -173 -66q-13 0 -27 1q-105 16 -192 103q-33 53 -48.5 95t-15.5 95v1012v26q0 28 -11 41.5t-40 22.5h-26h-166q-49 0 -69.5 -20.5t-20.5 -69.5v-525v-512z" />
<glyph unicode="V" horiz-adv-x="1648" d="M113 1692q0 -3 6 -39l104 -369q120 -414 248 -870q18 -59 51 -176t51 -175q9 -36 28 -49.5t58 -13.5h164h172q56 0 74 43q2 4 5 14.5t5 14.5l162 567q47 166 141.5 497.5t141.5 497.5q9 30 12 60v5q0 30 -33 36q-16 4 -22 4q-25 0 -70.5 0.5t-83 0.5t-70.5 -1 q-32 0 -49 -14t-26 -46l-6 -14q-61 -221 -101 -356q-124 -447 -155 -555q-33 -118 -64 -213q-3 -16 -18 -35q-6 -9 -14 -9t-13 9q-15 23 -20 39q-34 107 -74 258q-9 31 -164 575l-86 305q-16 49 -61 54q-8 2 -23 2h-205q-21 0 -31 -2q-34 -9 -34 -40v-5z" />
<glyph unicode="W" horiz-adv-x="1802" d="M113 508q0 -22 4 -72q24 -185 164 -307q137 -116 311 -116q35 0 72 5q96 14 192 74q23 14 45.5 14t44.5 -14q43 -26 64 -35q96 -43 203 -43q24 0 49 2q196 21 321 177q107 127 107 307v567v586q0 6 -1 17.5t-1 17.5q-4 25 -16.5 36.5t-37.5 14.5q-8 2 -24 2h-180 q-23 0 -33 -4q-35 -6 -41 -39q-4 -28 -4 -45v-1026v-117q-3 -76 -49 -119q-39 -37 -87 -37q-17 0 -36 4q-71 18 -97 91q-12 35 -12 90q-2 373 -2 1114q0 23 -2 33q-3 26 -15 38t-38 17h-21h-184q-23 0 -33 -4q-32 -6 -39 -39q-4 -14 -4 -45v-1125q0 -19 -4 -51 q-6 -46 -37.5 -79t-77.5 -42q-11 -2 -22 -2q-30 0 -59 14q-39 20 -62 60q-20 41 -20 107v1116v22q-1 35 -17.5 50.5t-50.5 17.5h-18h-164q-53 0 -70.5 -17t-17.5 -69v-1147z" />
<glyph unicode="X" horiz-adv-x="1458" d="M113 82q0 -19 2 -27q3 -26 15 -38t38 -17h27q42 -2 84.5 -2t85.5 2q51 0 67.5 16.5t16.5 67.5q1 62 1 185t1 184q3 181 163 256q51 25 110 25q24 0 48 -4q86 -14 143 -71q89 -86 89 -208v-336q0 -33 2 -49q2 -34 16.5 -49.5t48.5 -16.5h10h185q20 0 30 2q39 6 45 43 q2 10 2 31q2 96 1.5 191.5t-1.5 191.5q0 92 -26 174q-36 119 -121 225q-19 23 -19 46q0 22 17 44l12 17q109 137 129 295q8 68 8 155q2 63 1.5 126t-1.5 126q0 37 -16.5 54.5t-54.5 17.5h-10h-175q-49 0 -66 -17t-17 -67v-291q0 -34 -5 -59q-30 -153 -180 -213 q-46 -17 -92 -17q-47 -1 -93 17q-94 34 -145 120q-38 64 -38 156q-1 50 -1 149.5t-1 149.5q0 37 -17 54.5t-55 17.5h-193q-37 0 -54 -16.5t-17 -53.5q0 -254 4 -381q3 -108 63 -219q8 -13 86 -129q12 -17 12 -34q0 -14 -8 -29q-5 -9 -28 -41q-126 -159 -129 -367v-186v-201z " />
<glyph unicode="Y" horiz-adv-x="1464" d="M113 1397q0 -70 2 -103q11 -151 102 -288q106 -157 279 -228q39 -18 52 -37t13 -61v-299v-236v-73q1 -37 18 -53.5t54 -18.5h18h160q55 0 72.5 17t17.5 71v506v98q0 61 51 80l17 6q168 72 268 217q115 164 115 367v297q0 19 -2 27q-5 45 -52 53q-4 0 -12 1t-12 1h-189 q-10 0 -30 -4q-35 -6 -41 -41q-4 -24 -4 -37v-209q0 -86 -4 -127q-15 -157 -160 -223q-57 -26 -115 -26q-33 0 -67 8q-94 24 -154 102q-57 75 -57 174v299q0 20 -7 41q-6 30 -36 39q-20 4 -31 4h-193q-38 0 -54.5 -17.5t-18.5 -56.5v-16v-254z" />
<glyph unicode="Z" horiz-adv-x="1390" d="M113 1487q0 -51 17.5 -68.5t68.5 -17.5h440h125q19 0 27 -2q30 -5 37.5 -21t-9.5 -41q-48 -71 -114 -161l-541 -760q-47 -63 -49 -103l-1 -126q0 -126 1 -126q0 -30 14 -43t45 -18h19h1005q11 0 31 4q39 6 45 43q4 20 4 31v184q0 13 -4 33q-8 32 -39 41q-28 4 -45 4h-557 q-27 0 -41 2q-20 3 -27.5 15.5t0.5 31.5q4 13 21 39q74 102 147 207q249 350 277 389q40 55 118.5 166.5t118.5 167.5q31 48 31 102v193q0 54 -17.5 71t-70.5 17h-494h-495q-23 0 -33 -2q-26 -3 -37 -14.5t-16 -38.5q-2 -8 -2 -27v-172z" />
<glyph unicode="&#x2000;" horiz-adv-x="872" />
<glyph unicode="&#x2001;" horiz-adv-x="1745" />
<glyph unicode="&#x2002;" horiz-adv-x="872" />
<glyph unicode="&#x2003;" horiz-adv-x="1745" />
<glyph unicode="&#x2004;" horiz-adv-x="581" />
<glyph unicode="&#x2005;" horiz-adv-x="436" />
<glyph unicode="&#x2006;" horiz-adv-x="290" />
<glyph unicode="&#x2007;" horiz-adv-x="290" />
<glyph unicode="&#x2008;" horiz-adv-x="218" />
<glyph unicode="&#x2009;" horiz-adv-x="349" />
<glyph unicode="&#x200a;" horiz-adv-x="96" />
<glyph unicode="&#x202f;" horiz-adv-x="349" />
<glyph unicode="&#x205f;" horiz-adv-x="436" />
<glyph unicode="&#xe000;" horiz-adv-x="1024" d="M0 0z" />
</font>
</defs>
</svg>
