<?xml version="1.0" standalone="no"?>
<!DOCTYPE svg PUBLIC "-//W3C//DTD SVG 1.1//EN" "http://www.w3.org/Graphics/SVG/1.1/DTD/svg11.dtd" >
<svg xmlns="http://www.w3.org/2000/svg">
<metadata></metadata>
<defs>
<font id="central_union_mission_neonRg" horiz-adv-x="2048" >
<font-face units-per-em="2048" ascent="1638" descent="-410" />
<missing-glyph horiz-adv-x="624" />
<glyph />
<glyph />
<glyph unicode="&#xd;" />
<glyph unicode=" "  horiz-adv-x="624" />
<glyph unicode="&#x09;" horiz-adv-x="624" />
<glyph unicode="&#xa0;" horiz-adv-x="624" />
<glyph unicode="0" horiz-adv-x="1363" d="M113 563v615q3 214 145 374q146 169 365 187q9 0 27 1t26 1q209 0 375 -152q148 -134 176 -346q4 -23 4 -69q2 -100 2 -304v-299q-3 -222 -141 -378q-153 -176 -377 -191q-16 -2 -45 -2q-208 0 -367 141t-186 355q-4 46 -4 67zM176 563q0 -27 4 -59q23 -186 164 -314 q142 -124 326 -124h41q196 15 333 170q125 140 125 335v205v174v224q0 21 -4 61q-23 182 -157 307q-142 133 -332 133q-31 0 -47 -2q-192 -15 -326 -164q-127 -145 -127 -331v-535v-80zM250 866v301q-3 154 97 277t251 149q96 16 185 -7t155 -76t109.5 -131t52.5 -167 q0 -7 1 -23t1 -24q0 -66 0.5 -187.5t0.5 -221.5t-1 -189q0 -201 -156 -336q-116 -101 -273.5 -99.5t-273.5 104.5q-150 132 -147 327v303h-2zM315 602q0 -47 2 -72q12 -135 114.5 -231t236.5 -98q151 -3 259 104t109 262v297v303q0 105 -55 194t-147 135t-193 34 q-166 -18 -258 -154q-68 -95 -68 -221q-3 -277 0 -553zM385 580v204v86v88v205q0 123 82 211q88 88 201 88q42 0 82 -12q161 -47 202 -219q9 -56 9 -76v-571q0 -157 -115 -246q-78 -62 -172 -62q-111 0 -195 78q-94 91 -94 226zM448 671.5q0 -48.5 1 -91.5q0 -110 75 -179 q59 -59 150 -59q75 0 131 47q92 68 92 197v569q0 32 -6 62q-30 134 -158 172q-38 10 -65 10q-88 0 -154 -72q-65 -65 -65 -166v-291q0 -32 -0.5 -91t-0.5 -107.5z" />
<glyph unicode="1" horiz-adv-x="899" d="M127 1296q-34 36 4 74q94 86 143 129q30 27 94.5 82.5t94.5 83.5q3 2 21.5 17.5t25.5 20.5t21.5 14t27.5 14q33 10 57 10q62 0 109.5 -42t54.5 -106q4 -36 4 -59v-719v-727q0 -15 -4 -43q-6 -35 -41 -41q-20 -4 -28 -4h-93h-94q-14 0 -20 2q-25 5 -37 16t-16 37v33 q-2 332 -2 997q0 10 -5 50q-3 24 -22 24q-4 0 -16 -4q-7 -3 -29 -16q-28 -22 -29 -23q-17 -14 -35 -14t-39 18q-6 6 -36 41q-52 59 -111 135zM180 1329q56 -68 88 -104l19 -21l26 -33q1 1 4.5 2.5t4.5 2.5q2 3 9 8.5t9 7.5q25 15 39 22q21 9 43 9q31 0 53.5 -20t30.5 -52 q8 -27 8 -66v-665v-332q0 -16 2 -22h8h94h93h8v22v594v283v569q0 35 -2 53q-3 37 -33 62.5t-68 25.5q-19 0 -34 -6q-24 -9 -76 -53l-43 -37l-148 -129q-26 -23 -71.5 -63.5t-63.5 -57.5zM305 1292q16 -22 53 4q15 13 101 88q94 77 98 80q12 11 20.5 7t8.5 -21q2 -10 2 -33 v-1218q0 -29 2 -41q7 -25 28 -25q25 0 31 25q2 12 2 35q3 336 0 673v678v6v6.5v6t-0.5 6.5l-1.5 6t-2.5 6t-3 4.5t-4.5 4.5t-6 3q-26 11 -53 -16q-92 -77 -111 -94l-156 -135q-30 -30 -8 -56zM463 1288q-6 -28 16 -37q9 -5 21 -1t18 14q11 22 21 57q0 22 -10.5 30.5 t-22.5 -1.5q-33 -20 -43 -62z" />
<glyph unicode="2" horiz-adv-x="1228" d="M113 86v301q0 202 135 358q158 183 401 213q9 1 45.5 4.5t55.5 6.5q73 12 124 70t54 132q3 107 -86 177q-60 49 -140 49q-71 0 -130 -40.5t-85 -111.5q0 -1 -1 -3t-1 -3q-15 -43 -32.5 -55.5t-61.5 -12.5h-96h-84q-46 0 -62.5 19t-9.5 65q27 193 170 330q154 145 365 154 q10 2 31 2q197 0 352 -125q196 -155 211 -404q14 -223 -142 -403q-136 -153 -346 -184q-109 -11 -118 -13q-143 -30 -187 -170q-7 -31 -4 -59q3 -32 37 -39q24 -4 41 -4h577q54 0 71 -17t17 -71v-170q0 -19 -2 -29q-3 -25 -14.5 -36.5t-36.5 -14.5q-12 -2 -33 -2h-278h-188 h-265h-196q-53 0 -70.5 17t-17.5 69zM178 66h23h196h453h278h21q0 10 2 16v170q0 6 -1 13t-1 9h-23h-182h-395q-23 0 -55 7q-38 9 -61.5 35.5t-26.5 62.5q-3 50 8 82q53 173 233 215q28 6 80 10q17 0 45 4q185 24 305 162q136 157 127 356q-15 218 -188 359 q-135 108 -311 108h-27q-187 -9 -324 -137q-125 -122 -151 -293v-8h8h84h90h6h25q0 2 1 5t3 8l4 10v2q2 2 2 6q32 89 107 141.5t169 52.5q100 0 181 -63q114 -89 108 -230q-3 -98 -67.5 -172.5t-161.5 -93.5q-38 -6 -70 -6q-6 -1 -18 -2t-17 -2q-221 -27 -360 -191 q-119 -137 -119 -315v-301v-20zM258.5 348.5q0.5 43.5 3.5 83.5q8 115 103 225q105 117 253 146q29 6 91 10q138 1 240.5 92t119.5 228q17 128 -76 245q-113 140 -288 146q-133 3 -240 -84q-55 -47 -96 -121q-10 -20 -17 -25q-12 -16 -35 -8q-18 9 -18 31q4 22 8 29 q120 233 381 245q164 6 291 -100q172 -142 160 -350q-6 -135 -103 -246q-128 -146 -325 -152q-231 -6 -344 -204q-40 -70 -43 -168v-140q0 -24 9 -32.5t34 -8.5h647h30q41 -3 41 -32q0 -14 -11.5 -24t-29.5 -11h-28h-344h-344h-31q-37 3 -37 39q0 24 -1 83.5t-0.5 103z" />
<glyph unicode="3" horiz-adv-x="1228" d="M113 494v22q3 42 43 51q10 2 32 2h39h52q81 -2 120 -2q37 -3 50 -39q24 -60 32 -73q69 -113 207 -113h31q102 9 153 100q24 43 21.5 89t-21 85t-57 66.5t-86.5 32.5q-14 2 -41.5 2.5t-36.5 1.5q-13 0 -37 4q-29 6 -39 39q-4 20 -4 33v196q0 13 4 33q10 33 43 39 q9 1 38.5 4t45.5 6q55 11 92 51t43 90.5t-18 102.5q-23 39 -62.5 61.5t-84.5 22.5q-59 0 -105 -37q-38 -32 -51 -86l-12 -45q-12 -33 -45 -39q-20 -4 -33 -4h-100h-82q-86 0 -74 86q17 135 78 231q128 208 375 232q18 2 55 2q111 0 207 -45q153 -70 235 -217 q59 -109 62 -238q0 -137 -68 -258l-4 -6q-23 -38 -21.5 -59.5t29.5 -55.5q99 -125 113 -270q24 -224 -115 -395q-140 -172 -356 -193q-50 -4 -72 -4q-223 0 -381 137q-164 141 -194 357zM178 502q24 -192 172 -316q138 -120 338 -120q43 0 66 2q189 18 311 168 q123 150 102 350q-15 127 -100 235q-40 51 -42 92.5t30 96.5l2 4q0 2 2 2q60 108 57 223q0 112 -53 207q-67 126 -205 192q-89 39 -180 39q-8 0 -24.5 -1t-24.5 -1q-215 -21 -326 -202q-51 -76 -70 -205v-13h11h82h100q10 0 16 2l7 21q1 3 3 8t3 8q18 75 71 119 q62 53 146 53q64 0 118.5 -32t83.5 -86q58 -104 9 -209q-52 -108 -168 -129q-25 -6 -56 -9q-14 0 -22 -2v-10v-194v-11h18q8 -2 27 -2q37 0 55 -2q62 -8 113.5 -44t79.5 -91q61 -116 0 -233q-65 -121 -205 -133q-18 -3 -37 -3q-175 0 -262 144q-22 42 -29 63q-1 3 -4 9.5 t-4 9.5q-18 2 -63 2h-35q-8 0 -10 2h-5h-22h-27h-39q-2 0 -5.5 -1t-4.5 -1v-2zM283 408q5 -24 10 -33q55 -110 153 -172q124 -83 293 -70q237 18 334 238q58 134 12.5 275.5t-170.5 221.5q-19 12 -24.5 19.5t-1 16t21.5 22.5q88 72 122.5 189t0.5 224q-36 117 -136.5 192 t-227.5 71h-19q-102 -2 -189 -63t-124 -157q-2 -5 -4 -15t-2 -11q0 -23 18 -29q23 -10 35 8q16 20 21 35q29 60 73 98q90 72 209.5 66.5t200.5 -86.5q142 -139 74 -336q-60 -163 -228 -184l-28 -6q-16 -10 -19 -27q0 -23 19 -29q6 -4 22 -8q152 -12 246 -141 q84 -116 56 -255.5t-150 -213.5q-112 -67 -260 -41q-173 29 -265 192q-9 22 -18 31q-13 19 -37 12q-21 -9 -18 -34z" />
<glyph unicode="4" horiz-adv-x="1298" d="M113 842v815q0 48 17.5 65t66.5 17q23 2 67 2h107q2 0 5 -1t5 -1q38 0 55 -17t19 -55v-18v-519q0 -49 17.5 -66t68.5 -17h86h135h4h12q35 1 50.5 17t17.5 50v35v504q0 52 17 69t69 19h65h103h4q3 0 8 -1t8 -1q32 -2 47.5 -17t16.5 -49q2 -16 2 -51v-754v-780 q0 -17 -4 -45q-9 -33 -41 -39q-10 -4 -33 -4h-92h-92q-21 0 -33 2q-35 9 -41 43q-4 28 -4 41v592q0 25 -4 39q-6 32 -41 41q-10 2 -31 2h-149h-150q-46 0 -137 -1t-137 -1h-2q-48 0 -65 17.5t-17 66.5zM178 823h17h2h135q45 2 139 2h150h149q15 0 43 -4q37 -8 61.5 -32.5 t30.5 -61.5q6 -24 6 -49v-301v-291q0 -14 2 -20q6 -3 11 -3h92h92q4 0 10 3q2 6 2 22v641v139v2v752v14v35v4h-6h-10h-107h-65q-15 0 -21 -2v-20v-301v-211v-31q-3 -58 -36.5 -91t-92.5 -36q-6 -2 -16 -2h-139h-88q-77 2 -113.5 37.5t-36.5 111.5v355v166v14v10h-10h-8h-107 h-67q-15 0 -19 -2v-16v-815v-19zM248 932q0 -43 11 -54.5t54 -11.5h617q37 0 46 -8.5t9 -44.5v-625q0 -22 2 -34q7 -27 31 -27t31 27q4 12 4 39v677v678q0 13 -4 41q-7 23 -31 23q-25 0 -31 -25q-2 -10 -2 -35v-563q0 -37 -9 -46t-46 -9h-563q-37 0 -45.5 9t-8.5 46v565 q0 11 -4 35q-3 11 -11.5 17.5t-18.5 5.5q-22 0 -29 -25q-2 -10 -2 -35v-620z" />
<glyph unicode="5" horiz-adv-x="1355" d="M113 504q-6 56 51 65q12 2 35 2h92h78q41 0 59.5 -13.5t30.5 -51.5q27 -82 98 -129q53 -33 119 -33q91 0 151 57q74 74 74 164q0 72 -51.5 133t-124.5 74q-33 8 -72 8h-254h-90h-90q-51 0 -68.5 17.5t-17.5 68.5v789q0 51 17.5 68.5t68.5 17.5h164h215h16h234h162 q52 0 69 -17.5t17 -70.5v-168v-23q-1 -32 -16.5 -46.5t-47.5 -16.5q-6 -2 -16 -2h-8h-445q-49 0 -66.5 -17t-17.5 -65v-117q0 -13 4 -37q6 -30 39 -37q24 -4 37 -4q19 -1 78 -1.5t92 -2.5q131 -6 252 -82q142 -93 207 -235q96 -202 26 -412q-87 -250 -325 -344 q-107 -43 -213 -43q-115 0 -225 49q-250 110 -324 377q-11 33 -14 78zM178 506q2 -28 10 -64q66 -235 289 -333q105 -46 199 -46q90 0 188 39q211 85 289 306q60 180 -25 364q-59 131 -182 207q-106 68 -221 74q-17 0 -51 1t-53 1h-62q-27 0 -51 6q-72 16 -88 86l-6 49v104 v15q2 75 38 111t111 36h285h168h12h2l2 4v15v4v168q0 5 -1 12t-1 10h-20h-162h-465h-164h-20v-20v-789v-20h20h90h90q166 0 254 -2q48 0 84 -8q97 -19 162.5 -96.5t65.5 -174.5q3 -119 -95 -211q-81 -75 -194 -75q-89 0 -154 45q-91 60 -125 161q-7 18 -8 19q-2 2 -20 2h-78 h-92h-21zM283 952q3 -36 41 -39h28h318q179 0 288 -133q98 -116 84 -256q-14 -134 -117.5 -228t-238.5 -93q-215 0 -326 192q-13 22 -20 27q-17 13 -31 6q-16 -6 -20 -27q-3 -17 8 -32q122 -228 377 -234q213 -6 348 164q87 109 90 252q3 123 -65 229q-109 166 -299 195 q-41 6 -125 6h-238q-21 0 -29 8t-10 29v18v441q0 39 8.5 47t48.5 8q345 0 515 2q24 0 34 2q25 6 25 31q0 22 -25 28q-10 2 -28 2h-293h-289q-38 0 -48.5 -10.5t-10.5 -48.5v-565v-21z" />
<glyph unicode="6" horiz-adv-x="1361" d="M113 575v295v295q0 216 133 373q135 167 352 197q41 6 82 6q189 0 344 -125q175 -140 205 -367q2 -15 -2 -39q-3 -24 -33 -34q-2 -2 -10 -2q-30 0 -93.5 -1.5t-95.5 -1.5h-43q-47 0 -61 54q-18 65 -68 112q-63 60 -149 60q-108 0 -172 -82q-55 -67 -49 -158q0 -43 39 -43 h6q9 1 19 3t21.5 5t18.5 4q67 13 119 13q142 0 272 -74q150 -86 228 -244q51 -102 57 -225q9 -181 -86 -332q-127 -197 -352 -250q-60 -14 -127 -14q-123 0 -226 53q-278 133 -325 449q-4 25 -4 73zM178 575q0 -45 4 -63q36 -277 285 -401q102 -48 201 -48q43 0 112 15 q204 48 314 221q81 130 75 295q-3 105 -51 199q-67 140 -203 217q-111 63 -239 63q-45 0 -107 -10q-12 -4 -16 -4q-26 -7 -49 -10h-12q-45 0 -74.5 28.5t-30.5 77.5q-6 111 66 201q38 51 96 78.5t125 27.5q113 0 194 -78q61 -61 84 -141q2 -2 2 -6h41h133h37v2 q-27 202 -182 326q-137 110 -303 110q-40 0 -74 -6q-190 -24 -311 -172q-117 -137 -117 -332v-204v-170v-216zM250 1169q2 -100 2 -303v-305q-3 -172 121 -299q161 -164 381 -121q108 20 190.5 89t122.5 160t35 199.5t-62 203.5q-86 142 -245.5 188.5t-307.5 -27.5 q-78 -40 -137 -108l-24 -12q-4 16 -9 26v8v117q0 157 5 217q6 95 61.5 175t142 122t179.5 33q203 -21 294 -205q13 -22 17 -27q17 -20 37 -10q24 14 18 41q-1 3 -3.5 10t-5 13.5t-5.5 11.5q-65 127 -187.5 189.5t-267.5 37.5q-152 -25 -253 -147.5t-99 -276.5zM317 567 q2 152 106 258t255 107q147 0 251.5 -108.5t104.5 -258.5q0 -149 -105 -256.5t-253 -107.5q-147 2 -253 107t-106 259zM365 967q-3 -7 1.5 -12t12.5 -5q14 0 29 18t14 33q0 5 -4 12.5t-8 8.5q-5 3 -14 1t-11 -5q-13 -22 -20 -51zM387 569q0 121 84 206t203 85q116 0 200 -84 q87 -87 87 -207t-84 -205t-203 -85t-205 86q-82 88 -82 204zM453 569q0 -93 64.5 -159t156.5 -66t156.5 65.5t64.5 161.5q0 93 -66 158.5t-155 65.5q-91 0 -156 -66t-65 -160z" />
<glyph unicode="7" horiz-adv-x="1454" d="M113 1479v184v14q3 31 17.5 46t45.5 18h17h10h348h176h33h274h221q52 0 69 -17.5t17 -68.5q0 -101 -2 -150q-1 -15 -6.5 -31.5t-9.5 -25t-16.5 -29t-14.5 -24.5l-145 -250q-19 -33 -73 -124t-83 -142l-153 -265l-234 -399l-92 -160q-30 -55 -94 -55q-82 0 -250 4 q-17 0 -37 8q-25 12 -14 37q17 42 30 64q33 59 97.5 168t81.5 139t107 185t138 237q102 178 273 469q10 16 16 35q18 43 -29 53q-24 4 -34 4h-596q-29 0 -43 4q-35 6 -41 41q-4 20 -4 31zM178 1468q4 0 11.5 -1t11.5 -1h317h279q33 0 47 -4q53 -10 74 -51q23 -41 2 -90 q-2 -4 -21 -43q-266 -457 -272 -467q-26 -47 -76 -132t-62 -106l-108 -184l-4 -8l-174 -301l-6 -12q30 -1 89 -2.5t89 -2.5h45q22 0 35 25q16 26 44 74t38 65l12 21l92 160q23 40 70 119.5t71 119.5l80 137q70 121 74 127l98 170q51 88 56 97l38 65q20 33 57 96t52 88 q3 8 10 19q27 44 27 61q4 98 4 146v2q0 5 -1 12t-1 8h-21h-221h-841h-11h-4v-4v-8v-39v-145v-11zM256 1571q-3 -26 31 -33h32h758q23 0 31 -2q21 -3 14 -25q-3 -12 -12 -24l-55 -96q-77 -132 -313.5 -537t-364.5 -627q-16 -22 -25 -47q-13 -26 10 -41q9 -6 22 -4.5t22 10.5 l14 21q40 65 102 176l551 944q17 29 46.5 79t54 92t45.5 79q18 31 7.5 48.5t-46.5 19.5h-25h-412h-428q-18 0 -28 -2q-31 -3 -31 -31zM973 1458q-5 -12 2 -21.5t20 -9.5q3 0 6 3q16 7 23.5 16t13.5 27q3 9 -3 15t-15 3q-26 -7 -29 -10q-15 -11 -18 -23z" />
<glyph unicode="8" horiz-adv-x="1468" d="M119 457q-28 214 96 383q14 21 27 34q29 40 6 82q-35 68 -41 82q-82 198 2 398q79 183 266 264q86 41 195 41h4q111 0 166 -4q116 -6 227 -76q136 -88 193 -229q83 -198 0 -396q-12 -30 -37 -71q-27 -53 8 -97q56 -66 84 -137q76 -194 10 -377q-78 -225 -303 -315 q-78 -36 -186 -39h-39h-62h-12q-113 0 -174 10q-146 20 -264 129q-142 133 -166 318zM182 465q21 -164 148 -279q102 -94 227 -112q82 -11 166 -11h4h8h31h31q22 0 37 3q85 0 163 32q197 81 267 277q58 166 -11 332q-21 58 -71 120q-66 82 -15 170q22 39 33 64q72 173 0 346 q-50 125 -168 199q-89 61 -194 67q-41 2 -125 2h-39h-4q-96 0 -170 -35q-164 -70 -232 -229q-74 -176 -2 -348q6 -14 29 -55q2 -3 5 -10.5t5 -10.5q45 -82 -14 -153q-7 -7 -23 -31l-2 -2q-108 -150 -84 -336zM258 432q25 -118 118.5 -202.5t213.5 -96.5q21 -2 45 -2t53 1 t45 1q13 0 46 -1t56.5 -0.5t45.5 3.5q155 19 254 142t82 286q-21 201 -201 307q-26 17 -26.5 26.5t24.5 29.5q63 58 82 86q70 98 70 216t-70 216q-107 150 -291 153q0 1 -67 1l-68 -1q-112 3 -209 -63q-101 -70 -140 -184t-5.5 -230t130.5 -190q16 -12 25 -21q15 -12 -2 -26 q-6 -3 -14 -11q-8 -6 -30.5 -20t-36.5 -25t-26 -24q-151 -157 -104 -371zM317 489q-10 93 30.5 177t118.5 134.5t171 51.5q27 1 58.5 1t69.5 -0.5t58 -0.5q126 -2 218.5 -83.5t107.5 -207.5q8 -76 -16.5 -145t-70.5 -116.5t-107.5 -74.5t-125.5 -26h-96v2q-15 0 -42.5 -1 t-50 -1t-42.5 2q-112 13 -191 94t-90 194zM368.5 1245q5.5 102 75.5 182q85 99 213 105q125 4 187 -6q83 -13 144.5 -66.5t88.5 -124t16.5 -152.5t-63.5 -147q-91 -113 -242 -116h-63q-96 0 -147 16q-101 35 -158 121t-51.5 188zM389 545q3 91 71.5 160t160.5 73q41 4 116 4 q78 0 115 -4q95 -7 160 -79t67 -169q0 -99 -69 -173.5t-168 -80.5q-78 -4 -107 -4h-10q-67 0 -123 9q-96 13 -156 87.5t-57 176.5zM442 1225q-4 64 35 127.5t101 91.5q56 24 135 24h14h23q84 0 131 -22q129 -54 141 -189q15 -133 -102 -215q-52 -38 -138 -41h-37 q-47 0 -88 3q-88 8 -148.5 70t-66.5 151zM455 541q-3 -74 41.5 -130.5t115.5 -66.5q41 -8 113 -8h8q35 0 105 4q74 6 125.5 61t50.5 127q0 72 -48 126.5t-120 60.5q-70 4 -109 4q-38 0 -112 -4q-69 -4 -118.5 -56t-51.5 -118zM508 1229q5 -65 48.5 -110.5t107.5 -49.5 q54 -4 81 -4h35q66 4 103 31q84 56 75 155q-9 95 -102 138q-39 14 -106 14h-23h-14q-67 0 -109 -19q-43 -19 -71 -64t-25 -91z" />
<glyph unicode="9" horiz-adv-x="1363" d="M117 514q2 25 12.5 38t34.5 17l20 2h113h86q48 0 66 -32q4 -5 7 -12.5t6 -16.5t5 -14q49 -119 166 -148q24 -6 49 -6q57 0 108 29t82 78q38 62 35 133q0 45 -41 45h-8q-15 -2 -42 -8.5t-40 -8.5q-70 -8 -100 -8q-174 0 -318 100q-211 147 -241 406q-24 185 69 344 q145 250 430 285q50 4 72 4q207 0 367 -142q167 -142 192 -368q4 -27 4 -78v-283v-284q0 -181 -88 -322q-81 -123 -202 -192q-129 -72 -279 -72h-18q-153 6 -279 84q-170 102 -238 289q-30 75 -30 141zM180 1114q27 -227 217 -358q130 -88 279 -88q49 0 90 8q6 0 18 3t15 3 q9 2 26 5t25 5h16q48 0 77.5 -30t29.5 -80q3 -89 -45 -168q-40 -63 -106 -99t-140 -36q-32 0 -66 6q-152 39 -210 188q0 2 -1 4t-2 5t-2 5l-6 17q-2 2 -14 2h-84h-111h-4q2 -43 27 -111q62 -168 211 -256q110 -70 246 -73h16q135 0 246 63q108 60 180 170q78 124 78 287v196 v166v205q0 45 -2 70q-24 203 -172 327q-140 125 -324 125q-17 0 -63 -4q-248 -27 -383 -252q-80 -139 -62 -305zM260.5 1082.5q-31.5 141.5 34.5 273.5q119 237 381 243q182 6 313 -122q126 -123 129 -301v-310v-299q0 -148 -87 -263.5t-230 -156.5q-151 -41 -295.5 24 t-210.5 206q-5 10 -10 35q-3 23 18 32t37 -10q6 -8 14 -24q76 -146 221 -191q189 -61 347 72q127 109 127 282q3 145 0 289v29q-3 12 -10.5 14.5t-16.5 -6.5q-10 -9 -29.5 -28.5t-29.5 -28.5q-120 -100 -279.5 -99.5t-277.5 101.5q-114 97 -145.5 238.5zM319 1171 q0 -150 107.5 -255t257.5 -105t258 106.5t107 253.5q0 147 -105.5 255t-259.5 108q-153 -1 -258 -106.5t-107 -256.5zM389 1171q0 120 85.5 205.5t205.5 85.5h2q120 0 205.5 -84t85.5 -204q0 -121 -86 -207t-205 -86q-121 0 -207 85t-86 205zM455 1171q0 -94 66.5 -159.5 t160.5 -65.5q93 0 159.5 67.5t65.5 160.5q0 91 -67 157t-160 66q-94 0 -159.5 -67.5t-65.5 -158.5zM942 732q-2 8 2 16q12 21 31 40q2 2 8.5 2.5t9.5 -2.5q5 -2 13 -18q-3 -5 -10 -21t-13 -24q-10 -17 -31 -6q-8 5 -10 13z" />
<glyph unicode="A" horiz-adv-x="1435" d="M113 61v27v518v500q0 228 155 403q153 170 373 197q14 0 41 1t39 1q216 0 383 -139q183 -152 213 -393q6 -50 6 -105v-985q0 -19 -4 -43q-7 -33 -41 -39q-20 -4 -31 -4h-90h-94q-9 0 -29 4q-37 6 -43 43q-2 12 -2 37q-2 160 -2 479q0 48 -16.5 65t-65.5 17h-160h-219h-6 q-41 0 -58.5 -17.5t-17.5 -58.5v-483q0 -17 -4 -41q-6 -35 -41 -41q-20 -4 -28 -4h-90h-97q-8 0 -12 2q-28 3 -42 16.5t-17 42.5zM174 82q0 -10 2 -14v-5h4h4h97h90h8q2 6 2 23v250v233q0 68 35 104t102 36h8h219h160q75 0 110.5 -35.5t35.5 -110.5v-201v-278q0 -15 2 -21 h10h94h90h10q3 12 3 23v985q0 45 -7 96q-24 213 -190 353q-151 127 -342 127q-7 0 -74 -5q-200 -24 -332 -174q-141 -156 -141 -362v-574q0 -297 2 -444zM252 174q0 -21 4 -31q6 -22 27 -22q22 0 28 22q4 20 4 33v520q0 35 8.5 43.5t45.5 8.5h704q37 0 46 -8.5t9 -43.5v-514 q0 -20 2 -32q3 -13 12 -21t19 -8q28 4 31 33q2 10 2 30v930q0 133 -70 246q-143 225 -404 225q-22 0 -46 -2q-180 -15 -305 -158q-117 -129 -117 -303v-458v-490zM314 1028.5q0 42.5 1 79.5q6 228 195 350q100 62 212 62q15 0 30 -2q128 -10 229 -95q145 -123 145 -307 q2 -84 2 -254q-2 -31 -10 -39t-39 -8h-358h-352h-27q-24 3 -27 27v12q0 28 -0.5 80t-0.5 94.5zM383 981v8q-1 38 -1 70q0 64 5 102q19 114 103 191t202 86q10 2 27 2q103 0 188.5 -60.5t122.5 -158.5q21 -58 21 -123v-99q0 -7 -1 -21.5t-1 -21.5q-8 -35 -33 -59.5t-62 -30.5 q-24 -6 -43 -6h-98h-190h-99h-2q-16 0 -26 2q-46 5 -79 33t-34 86zM446 983q0 -29 13 -40.5t43 -16.5h22h99h94h96h98q15 0 31 4q37 6 43 39q2 10 2 32q2 24 1.5 48.5t-1.5 48.5q0 56 -16 100q-28 78 -97.5 128t-154.5 50h-21q-95 -8 -163.5 -69.5t-83.5 -153.5 q-6 -42 -6 -107q0 -29 1 -63z" />
<glyph unicode="B" horiz-adv-x="1447" d="M113 84v786v783q0 13 4 41q6 34 43 43q10 2 33 2q117 2 352 2q159 0 241 -2q181 0 322 -123q146 -128 170 -322q4 -33 4 -66q0 -107 -45 -208q-6 -12 -31 -57q-10 -23 -10 -42q0 -25 16 -44q76 -101 101 -185q24 -87 24 -167q0 -190 -135 -345q-128 -148 -332 -176 q-23 -4 -69 -4h-334h-268q-51 0 -68.5 17t-17.5 67zM178 84q0 -14 2 -18q1 0 7 -1.5t12 -1.5h268q167 0 334 3q43 0 61 2q176 23 291 153q118 135 118 302q0 73 -22 151q-22 79 -88 162q-32 41 -32 84q0 34 20 71l10 19q3 6 9.5 18.5t9.5 18.5q39 88 39 183q0 28 -3 56 q-24 171 -149 281q-123 105 -281 108h-239h-203h-149q-9 0 -13 -2q-2 -6 -2 -20v-647v-332v-590zM254 154q3 -22 25 -25q8 -2 20 -2h524q27 0 51 6q157 25 252 151q79 105 79 232q0 25 -3 51q-24 204 -209 305q-19 10 -25 17.5t-1 15.5t22 21q160 118 160 313 q0 151 -108 259t-257 108h-479q-35 0 -43 -8.5t-8 -45.5v-686v-682v-30zM319 238v286v275v24q3 24 27 27q6 2 16 2h447q109 -2 195.5 -68t117.5 -172q14 -47 14 -93q0 -79 -41 -154q-65 -119 -194 -156q-43 -12 -90 -12q-63 -1 -137 -1t-165 0.5t-138 0.5h-11q-25 0 -33 8 t-8 33zM319 967v266v258v25q3 21 25 24h18h404q135 0 227 -92q83 -83 89 -202v-16q0 -109 -70 -192q-91 -105 -217 -108q-100 -4 -316 -4h-119q-25 0 -33 8t-8 33zM389 414v176v53v6q1 65 36 99t99 36h43h25h24h113q46 0 100 -4q88 -6 153.5 -68.5t74.5 -150.5q2 -15 1 -31 q0 -72 -38 -134q-48 -76 -131 -103q-53 -16 -103 -19h-116h-88h-52q-19 0 -47 7q-35 6 -58.5 30t-31.5 60q-4 32 -4 43zM389 1141v182q0 25 4 39q6 41 32 66.5t67 31.5q14 4 38 4h31h98h97q111 0 180 -69q71 -73 71 -158q0 -40 -16 -84q-25 -65 -75 -105t-117 -47 q-25 -2 -88 -2v-2h-66h-31h-32h-52q-40 5 -47 7q-35 7 -58.5 30.5t-31.5 57.5q-4 32 -4 49zM453 414q0 -11 4 -31q7 -33 41 -39q10 -4 32 -4h140h116q35 0 82 14q63 22 98 78q28 46 28 97q0 12 -1 24q-8 65 -56 112.5t-112 51.5q-23 2 -64 2.5t-69 0.5t-28 1h-25h-18h-5h-49 q-27 0 -41 -2q-38 0 -54.5 -16.5t-18.5 -55.5v-4v-229zM453 1141q0 -11 4 -35q10 -33 39 -39q24 -4 36 -4h50h63q0 1 26 1t63.5 0.5t58.5 2.5q100 9 137 109q11 31 11 59q0 63 -52 115q-49 49 -135 49q-31 2 -95 2h-127q-10 0 -30 -4q-39 -6 -45 -45q-4 -20 -4 -31v-180z " />
<glyph unicode="C" horiz-adv-x="1349" d="M112 659.5q0 51.5 0.5 114t0.5 96.5v306q6 333 303 499q119 64 256 64q41 0 61 -2q276 -27 428 -264q63 -95 82 -224v-35q-6 -34 -41 -40q-25 -5 -31 -5h-93h-93q-8 0 -33 5q-31 6 -43 36q-29 73 -32 78q-34 55 -86.5 84t-110.5 29q-80 0 -139 -47q-92 -71 -92 -187 q-2 -149 -1.5 -298t1.5 -298q0 -140 126 -209q47 -24 101 -24q92 0 151 53q54 49 76 121q9 29 25 41t47 14h96q74 0 111 -2q25 0 43 -12q20 -13 20 -38q0 -8 -2 -17q-16 -80 -31 -125q-64 -185 -235 -291q-130 -79 -275 -82q-4 0 -12 -1t-12 -1q-159 0 -295 84 q-228 141 -266 410q-4 25 -4 71q-1 45 -1 96.5zM176 563q0 -43 4 -61q34 -239 238 -367q115 -72 260 -72h22q132 6 244 74q148 90 209 256q13 41 23 101l2 8q-19 0 -55 1t-52 1q-17 0 -48 -1t-46 -1h-8q0 -2 -4 -10q-29 -88 -95 -148q-82 -72 -194 -72q-67 0 -131 33 q-160 91 -160 266q-2 126 -1.5 275.5t1.5 320.5q0 147 115 236q78 63 180 63q76 0 143.5 -38.5t108.5 -106.5q10 -17 29 -64q1 -5 4 -12.5t4 -9.5q6 -2 16 -2h93h93h9v6q-18 115 -72 199q-138 211 -381 235q-18 2 -55 2q-127 0 -226 -57q-264 -147 -270 -442q-2 -52 -2 -104 t2 -105v-93v-4v-82v-225zM248 555q3 -146 92 -258q136 -167 335 -167q25 0 52 3q227 24 338 234q9 15 13 34q4 23 -19 29q-22 7 -33 -6q-5 -5 -10.5 -14.5t-7.5 -12.5q-37 -69 -86 -110q-87 -75 -194 -89q-23 -3 -47 -3q-83 0 -165 41q-200 104 -203 325q-1 1 -1 132v165 q0 296 1 297v8q0 168 121 277q106 96 238 96q18 0 37 -2q206 -18 303 -207q6 -12 16 -22q14 -18 35 -9q16 9 16 27v6q-3 15 -10 29q-63 134 -197 200q-90 44 -186 44q-46 0 -94 -11q-153 -32 -248.5 -150t-95.5 -276v-299v-311z" />
<glyph unicode="D" horiz-adv-x="1361" d="M113 84v786v781q0 19 4 43q6 34 41 43q10 2 32 2q51 0 153.5 1t152.5 1q136 0 202 -2q211 -3 363 -146q157 -142 184 -350q6 -30 6 -59q0 -524 -2 -627q0 -217 -157 -383q-139 -145 -338 -170q-23 -4 -72 -4h-258h-223q-53 0 -70.5 16.5t-17.5 67.5zM176 84q0 -4 1 -11 t1 -10h23h43h180h258q18 0 63 5q175 21 297 149q139 142 142 340q2 156 2 469q0 26 -1 79t-1 79q0 31 -4 51q-24 184 -162 311q-138 126 -320 129h-202h-166h-140h-12q0 -4 -1 -11.5t-1 -12.5v-645v-349v-573zM253 185.5q0 -5.5 1 -9.5q3 -36 39 -39h18h389q20 0 48 4 q155 20 261.5 140.5t106.5 277.5q2 156 2 313t-2 314q0 169 -125 291q-124 127 -311 127h-361q-43 0 -54 -11.5t-11 -54.5v-668v-663q0 -3 -0.5 -9.5t-0.5 -12zM317 229v29v612v617q0 35 8.5 43t43.5 8h311q145 0 250.5 -95t118.5 -239q2 -12 2 -35v-600q0 -143 -94 -247 t-238 -119h-23q-83 -2 -166.5 -1.5t-167.5 1.5h-16q-26 3 -29 26zM387 399v31v868v27q3 139 139 139h58q80 0 123 -2q106 -9 182.5 -85t83.5 -183q4 -54 4 -78v-528q-3 -97 -41 -166q-84 -134 -234 -143q-44 -5 -116 -5h-70q-57 2 -91 34.5t-38 90.5zM451 438q0 -25 2 -35 q1 -34 16 -48.5t49 -16.5h68q36 0 110 4q119 6 183 115q32 52 32 131q1 0 1 264l-1 264q0 49 -2 74q-6 80 -66 140.5t-141 66.5q-39 4 -118 4h-39h-17h-2q-41 0 -57 -17t-18 -59v-35v-420v-432z" />
<glyph unicode="E" horiz-adv-x="1183" d="M113 88v784v783q0 15 4 43q7 33 41 39q10 4 35 4h495h273h14q63 -3 63 -64q2 -52 2 -104.5t-2 -104.5q0 -32 -15 -46.5t-48 -16.5h-27h-24h-365h-14h-19q-41 -1 -58 -18.5t-17 -57.5v-192q0 -13 4 -33q6 -32 39 -39q12 -4 36 -4h111h43h27h2h4q10 0 14 -2 q35 0 51.5 -16.5t18.5 -51.5v-200q-1 -37 -18 -53.5t-52 -16.5q-27 -2 -78 -2h-82h-14h-18h-19q-35 -2 -51.5 -17.5t-17.5 -50.5v-241q2 -36 18.5 -52t54.5 -16h191h133h41h100h2q9 0 15 -2q63 -3 63 -64q2 -52 1.5 -104t-1.5 -104q0 -34 -15.5 -49t-49.5 -17q-6 -2 -19 -2 h-14h-244h-526q-15 0 -43 4q-35 6 -41 41q-4 28 -4 43zM178 68q8 -2 23 -2h526h258h16h5v2q2 52 2 104t-2 104h-5h-10h-4h-98h-174h-191q-64 0 -100.5 35.5t-36.5 98.5q-2 58 -1.5 118.5t1.5 122.5q0 61 34.5 95.5t96.5 37.5h21h32h41h41h76h6v7q2 52 1.5 101.5t-1.5 96.5v6 h-6h-12h-76h-113q-23 0 -47 6q-35 6 -58.5 30.5t-31.5 60.5q-4 14 -4 45q-2 52 -1.5 100t1.5 92q0 136 137 139h21h379h14h10h23h4v2q2 52 1.5 103t-1.5 102v2h-4h-10h-273h-495q-9 0 -15 -2v-20v-637v-291v-639v-20zM262 188q0 -28 10.5 -39.5t36.5 -11.5h590q13 0 25 4 q19 6 22 24v6q0 14 -12 24q-7 5 -31 10q-4 1 -10 1t-13 -0.5t-10 -0.5q-85 1 -247.5 1t-247.5 1q-31 0 -39 8.5t-10 40.5v543q0 12 2 18q0 17 7 24t25 9h25h250q19 0 37 6q22 6 22 31q0 22 -24 28q-15 3 -31 3h-272q-23 2 -31.5 9t-9.5 29v17v514q0 37 9 46t46 9h477 q25 0 35 4q20 3 20 29q0 24 -20 27q-10 4 -35 4h-532q-41 0 -52.5 -11.5t-11.5 -52.5v-668v-686z" />
<glyph unicode="F" horiz-adv-x="1056" d="M113 121v749v783q0 17 4 45q7 32 39 39q12 4 37 4h485h297h16q32 -3 47.5 -18t16.5 -46q2 -52 1.5 -104.5t-1.5 -104.5q-1 -32 -17 -46.5t-49 -16.5h-22h-23h-387h-16h-19q-37 -1 -53 -18t-18 -54v-203q0 -44 24 -57q21 -12 51 -12h92h66q25 0 35 -2q25 0 37 -2 q35 -6 41 -43q4 -20 4 -33v-182v-4q0 -40 -17 -57t-57 -19h-96h-25h-74q-22 0 -34 -2q-38 -9 -43 -43q-4 -24 -4 -39v-547q0 -53 -17.5 -70.5t-71.5 -17.5h-61h-100h-6h-13q-35 1 -51 18t-16 52q-2 16 -2 51zM178 66h6h11h106h61h23q0 2 1 9t1 13v193v356q0 31 4 47 q13 80 96 96q28 4 45 4h74h25h96h8q0 1 1 5t1 6v51q0 90 -2 135v12q-6 2 -16 2h-35h-66h-94q-48 3 -80 23q-57 31 -57 112v203q0 63 35 98t98 37h21h403h12h11h18h4v2q2 53 1.5 104.5t-1.5 100.5v2h-4h-10h-297h-485q-9 0 -13 -2q-2 -6 -2 -22v-641v-142v-2v-747v-12v-37v-6 zM254 174q0 -25 2 -37q6 -21 29 -24q24 0 30 24q2 12 2 35q2 207 2 621v28q3 26 29 29h23h252q10 0 34 4q10 3 17.5 12.5t7.5 20.5t-7.5 19t-19.5 9q-12 3 -26 3h-260q-34 0 -42 8.5t-8 42.5v4v514q0 37 8.5 46t45.5 9h497q25 0 37 4q21 4 21 29q0 24 -23 27q-10 4 -35 4 h-553q-41 0 -52 -11.5t-11 -52.5v-682v-686z" />
<glyph unicode="G" horiz-adv-x="1347" d="M113 877q0 251 2 301q6 330 299 499q116 64 252 64q39 0 59 -4q317 -34 461 -330q33 -71 43 -160q3 -16 0 -33q-6 -32 -37 -38q-13 -5 -31 -5q-15 0 -48 -1t-50 -1q-16 0 -46 1t-44 1q-25 0 -43 9q-21 11 -35 47q-18 60 -72 121q-61 55 -149 55q-89 0 -150 -55 q-80 -80 -80 -189q0 -386 2 -579q0 -142 123 -213q43 -27 103 -27q88 0 147 53q51 47 66 99q5 15 5 26q0 36 -46 41q-16 2 -53 2h-25h-8q-51 2 -67.5 17.5t-16.5 66.5v141v23q3 30 17 44.5t44 18.5h17h6h231h164q49 0 66.5 -18.5t17.5 -69.5q0 -124 -2 -200q0 -132 -45 -236 q-89 -213 -301 -303q-102 -45 -213 -45q-67 0 -152 20q-206 58 -325 246q-61 96 -80 221q-4 25 -4 76q-2 102 -2 314zM178 563q0 -29 4 -65q11 -103 70 -197q109 -168 289 -217q82 -21 135 -21q95 0 188 41q187 78 269 271q35 82 38 209v143v57v21h-18q-18 0 -52 0.5 t-61 0.5t-51 -1h-237h-11q-2 0 -4 -2v-15v-26v-117v-20h21h33q41 0 59 -2q60 -7 88 -50q17 -23 17 -53q0 -21 -9 -47q-21 -71 -86 -127q-73 -70 -188 -70q-71 0 -135 33q-75 44 -115.5 114t-40.5 157v481v98q0 142 100 234q76 73 193 73t192 -75q65 -59 90 -146q2 -4 2 -8 q4 -2 15 -2h90h98h4v4q-9 84 -37 141q-127 261 -409 295q-36 4 -53 4q-114 0 -222 -59q-260 -142 -266 -444q-2 -50 -2 -102t2 -105v-88v-4v-86v-228zM246 565q0 -175 123 -301q128 -128 301 -128q25 0 51 3q141 14 248 115.5t127 243.5q4 32 5 64q1 21 1 46q0 13 -0.5 26 t-0.5 25q0 23 1 39q0 28 -11 39t-38 11h-213q-3 0 -23 -5q-17 -6 -20 -24q0 -25 18 -31q9 -4 31 -8h151q21 0 29 -8t8 -29v-72q-3 -176 -133 -286q-79 -66 -179 -79q-25 -4 -49 -4q-74 0 -144 31q-93 41 -152 127q-66 100 -66 222v555q0 46 2 71q15 147 129 246 q104 88 223 88h15q209 -9 315 -203q5 -10 19 -24q11 -13 33 -6q18 7 18 24q-6 30 -8 35q-25 55 -76 109q-98 100 -231 125q-41 7 -79 7q-89 0 -169 -40q-250 -116 -256 -391v-306v-307z" />
<glyph unicode="H" horiz-adv-x="1460" d="M113 66v45v1540q0 15 4 43q6 37 43 43q20 4 33 4h86h96q8 0 12 -2q32 -1 47.5 -16.5t16.5 -47.5q2 -8 2 -24v-516q0 -51 16.5 -68.5t67.5 -17.5h161h228h6q43 0 60.5 17t17.5 60v527q0 53 17 70.5t71 17.5h65h105h4q10 0 16 -2q61 -3 64 -64q1 0 1 -12v-15l-1 -26v-752 v-782q0 -29 -4 -43q-6 -35 -41 -41q-10 -4 -31 -4h-94h-95h-12q-32 3 -47 17.5t-18 45.5v25v590q0 51 -17 67.5t-67 16.5h-158h-231h-9q-41 0 -58 -17.5t-17 -60.5v-598q0 -52 -17.5 -69t-70.5 -17h-68h-98h-6h-15q-32 3 -47 18.5t-18 47.5zM178 66h4q3 -3 11 -3h104h68 q5 0 12 1.5t10 1.5v20v219v379q0 140 141 143h9h231h158q76 0 112.5 -36.5t36.5 -112.5v-383v-211v-14v-4h4q3 -3 8 -3h95q46 0 92 3h12v22q2 217 2 651v133v750v14q0 25 -2 35v4h-4h-10h-109h-65h-23v-22v-203v-324q0 -140 -141 -143h-8h-228h-161q-77 2 -113.5 38.5 t-36.5 113.5v338v182v16v4h-4h-8h-96h-86q-9 0 -15 -2v-22v-1540v-13v-28v-4zM254 182q0 -23 2 -35q6 -24 29 -24t30 22q4 24 4 37v631q0 39 8.5 47t47.5 8h727q38 0 46.5 -8.5t8.5 -46.5v-629v-26q3 -35 33 -35q12 0 20.5 10t10.5 25q2 10 2 30v631v731q0 13 -4 37 q-7 23 -29 23q-26 0 -29 -23q-4 -12 -4 -35v-563q0 -38 -8.5 -46.5t-46.5 -8.5h-729q-37 0 -45.5 8.5t-8.5 46.5v563q0 11 -4 35q-7 23 -30 23q-22 0 -29 -25q-2 -10 -2 -35v-684v-684z" />
<glyph unicode="I" horiz-adv-x="991" d="M113 84v172q0 17 2 25q5 27 16 39t37 16h22q10 1 31 1t33 1q38 0 55 17t17 55v921q0 5 -1 14t-1 13q-9 37 -43 43q-14 1 -40 2t-40 2q-31 0 -45 4q-33 7 -39 39q-4 20 -4 31v186q0 13 4 33q7 33 41 39q20 4 35 4h374h236h14q63 -3 66 -66v-207q-1 -32 -17 -46.5 t-49 -16.5h-33h-22q-15 0 -21 -2q-22 0 -34 -2q-33 -7 -39 -41q-4 -20 -4 -35v-909v-13q2 -34 16.5 -48.5t48.5 -16.5h31h24q15 0 21 -2q23 0 35 -2q34 -10 39 -41q4 -20 4 -35v-178v-12q-3 -65 -68 -68h-22h-23h-137h-135h-181h-120q-49 0 -66.5 17t-17.5 67zM178 66h19 h120h181h2h293h20h4v4v10v43l1 67q0 68 -1 68v14h-12h-21h-24h-33q-58 3 -91 35.5t-38 91.5v17v88v821q0 23 6 47q6 35 30.5 59.5t59.5 32.5q28 4 45 4h23h22h29h4v2q2 50 1.5 101t-1.5 104q-2 0 -4 2h-10h-236h-374q-2 0 -7.5 -1t-7.5 -1v-10q-2 -47 -2 -93t2 -91v-11 q3 0 9.5 -1t9.5 -1h8h26q9 -1 28.5 -2t29.5 -2q37 -5 63 -29.5t33 -62.5q6 -36 6 -41v-921q0 -64 -36 -100t-101 -38h-35h-29h-12v-16v-172v-18zM242 170v-5q0 -19 20 -26q12 -6 29 -6h420q15 0 30 6q22 7 19 31q0 10 -7 17.5t-16 9.5q-16 4 -26 4h-136q-26 0 -34.5 8 t-8.5 33v1255q0 26 8.5 34.5t34.5 8.5h140q8 0 28 4q19 6 19 29q-3 20 -19 26q-20 5 -26 5h-430q-13 0 -19 -2q-26 -6 -26 -29q0 -25 26 -31q6 -2 23 -2h123q34 0 42.5 -8.5t8.5 -42.5v-619v-628q0 -25 -8.5 -33t-34.5 -8h-131q-9 0 -25 -4q-21 -3 -24 -27z" />
<glyph unicode="J" horiz-adv-x="1359" d="M113 502q-1 7 -1 14q0 55 68 55h80h115q14 0 20 -2q44 -3 56 -45q23 -75 69 -118q72 -66 156 -66q39 0 80 14q134 46 153 195q2 18 2 59v711q0 27 -2 39q-6 35 -41 41q-12 4 -34 4h-101h-24h-35h-6q-11 0 -15 2q-34 2 -49.5 16.5t-15.5 46.5q-2 52 -2 104.5t2 104.5 q0 58 63 64h15h6h215h274q29 0 43 -4q39 -6 45 -43q4 -24 4 -41v-533v-514q0 -124 -30 -215q-45 -130 -138 -223q-157 -154 -370 -166q-14 -2 -39 -2q-206 0 -365 135q-171 142 -198 367zM178 508q24 -198 174 -324q139 -118 324 -118h35q192 12 329 149q79 79 121 197 q27 82 27 194v367v147v90v443q0 14 -2 22q-4 0 -12.5 1t-12.5 1h-274h-221h-11q-2 -2 -4 -2v-205v-2h6h11h65h101q23 0 47 -6q36 -6 60 -30.5t32 -61.5q4 -32 4 -51v-711q0 -42 -4 -67q-10 -91 -61 -155t-136 -93q-52 -19 -100 -19q-108 0 -201 84q-54 50 -86 148h-8l-6 2 h-43h-72h-82zM283 414q0 -15 8 -39q41 -81 108 -139q124 -103 284 -103h9q198 6 330 162q98 119 98 278v478v501q-2 28 -13 40t-38 12h-297q-2 0 -22 -5q-23 -8 -23 -28q0 -22 23 -29q16 -4 30 -4h219h23q26 -3 29 -29v-18v-920q0 -172 -136 -286q-89 -73 -204 -83 q-16 -1 -32 -1q-97 0 -183 51q-96 58 -144 154q-14 24 -22 30q-15 7 -31 4q-16 -5 -16 -21v-5z" />
<glyph unicode="K" horiz-adv-x="1419" d="M113 88v782v781q0 15 4 43q6 37 43 43q20 4 33 4h88h96q4 0 11 -1t11 -1q26 -5 38.5 -17.5t15.5 -38.5q2 -10 2 -30v-469q0 -50 17.5 -67t68.5 -17h82h61q98 0 150 71q36 46 36 123v359q0 52 17.5 70t68.5 18h72h102q17 0 27 -2q26 -4 38 -17t15 -39q2 -10 2 -30v-359 v-13q0 -133 -57 -251q-9 -19 -10 -38q0 -25 18 -50q46 -59 78 -113q62 -111 62 -225q4 -176 4 -526q0 -72 -72 -72h-96h-99q-40 0 -57.5 18t-17.5 58v446q0 66 -23 125q-41 87 -125 90q-102 5 -246 5h-10q-33 0 -55 -5q-41 -3 -47 -47q-4 -20 -4 -34v-576q0 -29 -4 -43 q-7 -33 -39 -39q-24 -4 -35 -4h-92h-92q-23 0 -33 2q-37 9 -43 45q-4 28 -4 41zM178 88q0 -14 2 -22h13h92h92h12v22v332v242q0 17 4 45q15 89 105 102q23 4 63 4h10h60q125 0 188 -4q62 -3 109 -36.5t73 -94.5q29 -69 29 -150v-243v-203v-10h10h99h96h6v6v74q0 300 -4 450 q0 103 -53 195q-9 18 -72 104q-33 44 -33 90q0 33 17 68q51 105 51 222v13v240v119v20q-6 2 -17 2h-102h-72q-14 0 -20 -2v-20v-119v-240q0 -94 -49 -161q-72 -96 -201 -99h-63h-50h-32q-47 0 -79 13t-47 36.5t-20.5 47t-5.5 53.5v241v228v20q-4 2 -12 2h-96h-88 q-2 0 -6.5 -1t-6.5 -1q-2 -6 -2 -22v-645v-277v-641zM250 188q0 -14 4 -34q4 -25 29 -25q24 0 30 25q2 10 2 34v633q0 19 2 29q0 17 7.5 24t25.5 9h17h446q23 0 35 -2q174 -26 235 -207q19 -61 19 -139v-345q0 -12 4 -32q7 -23 29 -23q25 0 28 23q4 10 4 32v383q0 32 -2 48 q-29 199 -186 288q-24 14 -41 21q-31 12 -6 37q0 2 4 6q136 118 139 301q2 92 2 274q0 16 -6 31q-7 20 -29 23q-20 0 -30 -23q-4 -20 -4 -31v-254q0 -19 -4 -59q-12 -113 -95 -193q-90 -90 -217 -90h-8h-315q-36 0 -45 9t-9 45v538q0 23 -2 35q-7 23 -30 23q-25 0 -29 -25 q-4 -10 -4 -35v-676v-678z" />
<glyph unicode="L" horiz-adv-x="1165" d="M113 86v786v783q0 15 4 43q7 33 41 39q20 4 32 4h89h94q16 0 24 -2q24 -5 36 -15.5t16 -33.5q2 -12 2 -39v-1215q0 -35 4 -53q3 -34 41 -41q24 -4 36 -4h437q51 0 68.5 -17.5t17.5 -68.5v-168q0 -15 -2 -21q-3 -31 -17 -45.5t-45 -17.5h-16h-6h-432h-338 q-51 0 -68.5 17.5t-17.5 68.5zM178 66h21h338h438h10h4v4v12v2v168v20h-20h-152q-191 0 -285 2q-30 0 -47 5q-39 6 -64.5 31.5t-31.5 62.5q-4 40 -4 63v694v521v24q-2 0 -6 1t-6 1h-94h-89q-2 0 -6 -1t-6 -1v-20v-643v-355v-571v-20zM250 870q0 -457 2 -686q0 -28 11 -39.5 t38 -11.5h567q16 0 31 6q16 9 16 25v6q0 24 -22 27q-24 4 -37 4h-475h-27q-22 0 -30.5 8t-8.5 31v28v1270q0 27 -2 39q-6 25 -30 25q-26 -3 -29 -25q-4 -24 -4 -35v-672z" />
<glyph unicode="M" horiz-adv-x="1802" d="M113 88v592v571q0 181 106 310q122 155 324 176q36 4 55 4q108 0 199 -45q24 -11 65 -35q24 -14 43 -14q25 0 47 16q97 61 193 72q40 6 76 6q176 0 311 -117q143 -125 164 -309q4 -25 4 -72v-1157q0 -52 -17 -69t-69 -17h-68h-98h-4h-14q-65 3 -68 68q-2 8 -2 22v1127 q0 67 -21 106q-43 74 -120 74q-17 0 -25 -2q-44 -8 -76.5 -41.5t-38.5 -79.5q-2 -16 -2 -53v-1131q0 -17 -4 -45q-6 -35 -41 -41q-20 -4 -33 -4h-90h-96q-14 0 -20 2q-26 3 -38.5 15t-15.5 38q-2 12 -2 35q0 747 -2 1120q0 58 -12 93q-15 44 -50.5 69t-78.5 25 q-52 0 -92 -37q-46 -43 -49 -119v-119v-1034q0 -13 -4 -45q-7 -33 -41 -39q-20 -4 -33 -4h-90h-92q-19 0 -27 2q-24 3 -35 14.5t-16 36.5q-2 12 -2 35zM178 66h15h92h88h14v22v846v188v35v86q3 105 70 166q59 53 137 53q65 0 116.5 -37t73.5 -100q17 -47 17 -115 q0 -140 1 -420.5t1 -416.5v-283v-24h10h96h90h11q2 8 2 24v572v559q0 25 4 61q9 67 55 115.5t111 60.5q24 4 37 4q55 0 102 -28.5t76 -79.5q28 -53 28 -137v-828v-303v-14v-6h7h12h102h68h20q0 1 1 7.5t1 12.5v2v1153q-1 12 -2 34t-2 32q-20 160 -143 268q-115 100 -268 100 q-22 0 -68 -4q-84 -13 -166 -63q-42 -25 -82 -25q-37 0 -78 23q-15 10 -59 32q-78 37 -170 37q-33 0 -49 -2q-170 -18 -281 -153q-90 -112 -90 -259v-10v-401v-166v-4v-111v-481v-22zM254 158q2 -15 11 -24t22 -9q12 0 20.5 9t9.5 24q1 0 1 18l-1 17q0 684 2 1034q0 32 3 59 q10 114 100 188q78 64 171 64q15 0 30 -2q160 -18 229 -168q25 -51 25 -145v-1035q0 -24 2 -36q7 -27 30 -27q24 0 31 27q2 12 2 36v1035q0 19 4 65q12 114 102 187q78 63 170 63q15 0 31 -2q136 -18 209 -131q43 -69 43 -174v-1041q0 -22 2 -34q3 -28 31 -31q11 0 19.5 8 t11.5 21q2 12 2 34v1069q0 159 -121 265q-82 72 -196 82q-17 1 -33 1q-93 0 -168 -46q-73 -45 -117 -109q-22 -34 -45 0q0 2 -4 6q-109 148 -283 149q-22 0 -45 -3q-129 -13 -215 -110t-86 -228v-541v-535v-30z" />
<glyph unicode="N" horiz-adv-x="1509" d="M113 90v782v783q0 29 4 43q7 32 39 39q12 4 34 4h27h82h63h5q62 0 96 -55l289 -506q46 -78 131 -226.5t102 -177.5q13 -23 29 -39q8 -12 20 -12h4q17 11 17 23q6 34 6 65v840q0 15 4 43q6 35 41 41q20 4 31 4h92h94h14q31 -3 45 -17t17 -45q2 -8 2 -26v-1563 q0 -17 -4 -41q-6 -37 -43 -43q-24 -4 -35 -4h-8h-99h-65q-4 -2 -12 -2q-74 0 -117 78q-56 103 -199 350q-92 164 -280 492q-16 31 -43 61q-8 12 -21 12q-2 0 -2 -2q-12 -3 -16 -20q-6 -34 -6 -64v-817q0 -26 -5 -43q-6 -35 -38 -41q-20 -4 -31 -4h-92h-99q-12 0 -18 2 q-26 3 -38 15t-15 38q-2 10 -2 33zM176 90q0 -16 2 -22h8h4h95h90h10v22q0 231 2 346v471q0 37 6 74q3 22 18.5 42.5t37.5 29.5q16 4 26 4q45 0 72 -35q32 -41 49 -70l182 -321q16 -29 49 -86.5t50 -85.5l63 -113q111 -193 135 -237q14 -26 27.5 -34.5t32.5 -8.5h8 q20 2 69 2h50h49h8h14q2 8 2 22v1466v101v16v2h-4q-2 2 -8 2h-94h-92q-1 0 -5 -1t-6 -1v-22v-359v-481q0 -45 -8 -78q-3 -22 -19.5 -43t-41.5 -28q-6 -2 -23 -2q-35 0 -69 30q-23 27 -35 51q-86 147 -234 406q-11 18 -290 504q-13 24 -39 24h-2q-8 0 -30.5 -1t-35.5 -1 q-29 0 -41 2h-41h-27q-2 0 -6 -1t-6 -1l-2 -20v-643v-283v-639zM256 188q0 -30 31 -30h5q27 0 27 32q3 12 3 27v490v716q0 27 2 39q4 24 22 6q2 -2 14 -20l564 -934q18 -30 87 -144t105 -177q19 -31 53 -31h56q26 2 36.5 12.5t10.5 36.5q2 4 2 12v1288q0 15 -2 23 q-3 25 -33 25t-33 -25q-2 -12 -2 -35v-1218q0 -25 -2 -37q0 -10 -10 -15q-4 -2 -18 7q-7 7 -13 16q-21 35 -62.5 103.5t-62.5 103.5l-575 956q-11 18 -39.5 66t-44.5 73q-19 30 -53 34q-6 1 -11 0q-27 0 -45 -19q-12 -14 -12 -47v-660v-643v-31zM373 1249l2 -8q4 -18 11 -55 t11 -56l6 -18q9 -17 31 -10q25 4 27 26q-1 1 -2 6t-2 7l-58 116q-4 5 -18 15q-1 -4 -4 -11.5t-4 -11.5zM1071 571q0 -4 4 -12q18 -39 58 -117q2 -3 8.5 -7t7.5 -5q2 3 8 21v10q-15 68 -22 108q-5 15 -9 19q-6 14 -20 14q-5 0 -10 -2q-25 -8 -25 -29z" />
<glyph unicode="O" horiz-adv-x="1337" d="M113 563v613q6 342 307 499q123 66 248 66q113 0 243 -62q264 -135 308 -438q4 -25 4 -72v-301v-301q0 -244 -176 -417q-142 -133 -332 -148q-16 -2 -51 -2q-154 0 -285 82q-224 144 -262 414q-4 23 -4 67zM174 735q2 -57 2 -172q0 -39 2 -59q34 -240 236 -367 q112 -74 250 -74q7 0 23 1.5t24 1.5q169 15 290 133q158 152 158 370q2 68 2 205v94v80q0 147 -2 221q0 44 -2 62q-41 272 -272 389q-110 55 -217 55q-108 0 -222 -57q-264 -141 -270 -444q-2 -145 -2 -439zM250 563v608q0 164 107.5 286.5t265.5 139.5q24 3 48 2 q84 0 161 -32q99 -42 166.5 -127t86.5 -195q5 -50 5 -61v-316v-307q0 -156 -99 -276q-89 -105 -217 -137q-52 -13 -103 -13q-73 0 -147 28q-124 47 -200 161q-74 104 -74 239zM313 539q15 -149 121 -245q104 -94 238 -93h6q141 3 244.5 109.5t103.5 248.5v307v297v10 q0 119 -72 216q-111 144 -277 144q-16 0 -32 -1q-146 -10 -239 -116t-93 -257v-584v-36zM381 575v9v288v82v207q3 112 68 195q41 49 99 76.5t120 27.5q44 0 90 -16q170 -62 192 -248q4 -25 4 -63v-549q0 -111 -59 -191q-40 -55 -99.5 -86t-127.5 -31q-112 0 -195 80 q-89 89 -92 219zM444 578q3 -106 74 -177q62 -59 150 -59q51 0 98.5 23.5t77.5 66.5q47 64 47 152v549q0 37 -2 55q-18 144 -154 194q-37 13 -67 13q-48 0 -93 -21.5t-75 -60.5q-56 -65 -56 -154v-289v-286v-6z" />
<glyph unicode="P" horiz-adv-x="1384" d="M113 63v27v780v781q0 15 4 43q6 37 43 43q10 2 33 2q117 2 350 2q157 0 237 -2q184 0 328 -135q146 -137 170 -334q4 -35 4 -69q0 -121 -49 -238q-46 -105 -121 -177q-136 -132 -309 -141q-51 -2 -144 -2.5t-122 -1.5q-27 0 -39 -2q-35 -9 -41 -41q-4 -24 -4 -39v-471 q0 -54 -17 -71t-71 -17h-64h-102h-6h-15q-33 3 -47.5 17t-17.5 46zM178 66h4q6 -3 11 -3h8h100h64q5 0 12 1.5t10 1.5v22v154v317q0 27 6 51q6 35 30.5 59.5t61.5 32.5q35 5 50 5h90q117 0 174 4q148 6 268 123q66 63 107 153q43 105 43 215q0 30 -3 60q-21 173 -151 294 q-122 116 -285 119h-235h-219h-131q-9 0 -13 -2q-2 -6 -2 -22v-645v-136v-780v-6v-14v-4zM252 164q0 -43 33 -43q29 3 32 43v26v414v129q0 35 8.5 44t45.5 9h18q64 0 195.5 -3t195.5 -3q27 0 39 2q139 18 230 129q102 122 102 289v10q-3 176 -133 297q-108 97 -238 97 q-79 0 -237.5 3t-237.5 3q-36 0 -44.5 -9t-8.5 -45v-688v-675v-29zM311 887v307v287v24q1 17 8.5 24t24.5 9h23q319 0 381 2h5q67 0 127 -24q62 -26 103.5 -69t67 -98t30.5 -112q1 -19 1 -38q0 -181 -140 -294q-73 -59 -178 -59h-414q-22 0 -30.5 9t-8.5 32zM387 1061v94v72 v94q0 23 6 47q6 35 30.5 59.5t61.5 32.5q32 4 45 4h25h57h56h73h7q117 0 190 -86q38 -44 55 -101q11 -37 11 -75q0 -20 -3 -39q-18 -130 -108 -200q-64 -45 -145 -45h-99h-80h-43q-19 0 -39 4q-38 6 -63 31.5t-31 62.5q-6 24 -6 45zM453 1061q0 -13 4 -33q6 -37 43 -43 q8 -2 26 -2q41 -2 123 -2q63 0 96 2q65 0 107 31q73 57 86 157q2 14 2 28q0 69 -44 129q-54 74 -148 73h-5q-25 -2 -75 -2q-18 0 -56 1t-57 1q-15 0 -23 -2q-24 0 -34 -2q-35 -6 -41 -41q-4 -24 -4 -35v-129v-131z" />
<glyph unicode="Q" horiz-adv-x="1419" d="M113 610v564q0 194 114 344q141 189 369 219q54 4 80 4q242 0 416 -195q123 -139 135 -321q2 -37 2 -221v-134v-284q0 -84 -17 -156l-6 -35v-6q0 -38 35 -45q38 -7 52 -28q12 -18 12 -54v-10v-166v-10q0 -76 -66 -76h-10q-81 6 -164 18q-25 3 -102 25q-24 4 -37 4 q-28 0 -49 -8q-115 -31 -132 -33q-41 -6 -81 -6q-160 0 -299 92q-125 85 -195 219q-49 100 -55 201q-2 33 -2 98zM176 610q0 -65 2 -94q6 -92 51 -174q63 -124 168 -195q124 -81 267 -81q23 0 73 4q52 9 97 24q4 1 12 4t12 4q42 11 68 11t53 -9l16 -4q48 -13 80 -18 q96 -13 158 -16h6h2v12v8v51q0 78 2 117q0 5 -0.5 10t-1 8t-0.5 4q-1 2 -12 5q-46 9 -68 41q-17 25 -17 60q0 9 1 19q0 31 4 43q14 61 14 121v21v200v86v39v93v63q0 103 -2 154q-9 160 -119 282q-150 172 -366 172q-24 0 -74 -4q-196 -24 -326 -192q-100 -132 -100 -295v-10 v-312v-252zM246 870h2v-268q0 -1 -1 -39t1 -39q15 -163 135 -274.5t281 -114.5q122 0 231 66q25 16 47 2q67 -44 186 -58q25 -3 46 0q19 5 23 23q1 3 1 7q0 13 -12 22q-12 12 -29 12q-102 17 -143 35q-25 10 -25 27q0 11 10 24q97 123 97 287v579q0 40 -2 58q-9 88 -52 165 t-108.5 129.5t-153.5 76.5q-53 13 -108 13q-38 0 -76 -6q-153 -25 -253 -147q-97 -119 -97 -267v-9q1 -44 1 -95t-0.5 -113.5t-0.5 -95.5zM311 606q-1 138 -1 277t1 278q0 126 68 221q98 138 256 152q21 2 41 2q131 0 234 -95q120 -110 120 -272v-299v-299 q-1 -102 -50.5 -187t-133.5 -134q-83 -47 -180 -47h-4q-132 3 -234.5 100t-114.5 232q-2 23 -2 71zM383 584v207v81v50v233q0 126 74 209q77 89 192 98h23q119 0 200 -84q84 -87 84 -213q2 -153 2 -300t-2 -287q0 -181 -149 -265q-64 -37 -137 -37q-79 0 -148.5 44.5 t-107.5 119.5q-31 67 -31 144zM446 584q0 -58 25 -113q29 -60 83.5 -94.5t115.5 -34.5q56 0 104 29q118 66 121 207v585q-1 100 -67 168t-156 68q-3 0 -9.5 -1t-9.5 -1q-85 -6 -149 -76q-58 -66 -58 -166v-283v-288z" />
<glyph unicode="R" horiz-adv-x="1390" d="M113 90v780v783q0 15 4 43q6 35 41 41q24 4 35 4h344h235q182 -3 320 -123q144 -126 168 -318q4 -30 3 -60q0 -140 -77 -271q-13 -19 -19 -41q-2 -7 -2 -14q0 -22 17 -48q79 -116 94 -260q4 -50 4 -74v-440q0 -52 -17.5 -69t-68.5 -17h-59h-105h-4h-14q-66 3 -66 68 q-2 8 -2 22q0 46 0.5 130t0.5 152.5t-1 129.5q0 58 -14 110q-29 106 -146 109h-125h-143q-36 0 -51.5 -17.5t-15.5 -56.5q-1 -73 -1.5 -220t-1.5 -220l1 -67v-38q0 -30 -1 -30q0 -23 -2 -35q-10 -33 -38 -39q-20 -4 -31 -4h-94h-95h-12q-29 3 -43.5 17.5t-15.5 43.5 q-2 10 -2 29zM176 84q0 -12 2 -18l2 -3h6h95h94q2 0 8 3v12v100v160v315q0 66 35 102t98 36q21 0 69.5 1t73.5 1q86 0 125 -2q78 -1 131.5 -41.5t75.5 -114.5q17 -66 17 -125q2 -100 2 -301v-113v-4v-14v-6q2 -2 6 -2h10h109h59q16 0 20 2q0 5 3 20v45q0 195 -3 395 q0 45 -2 68q-15 132 -84 231q-27 40 -27 84q0 14 3 29q12 38 26 60q69 111 69 235q0 26 -3 53q-21 168 -147 277q-118 106 -277 106q-70 2 -235 2h-205h-139l-15 -2v-22q-2 -215 -2 -645v-138v-780v-6zM252 184q0 -27 2 -39q3 -24 29 -28q23 0 30 26q2 10 2 31v324v311v22 q2 21 9.5 29t27.5 8h8h435q92 0 161 -48.5t101 -135.5q26 -66 26 -160v-348q0 -13 4 -33q7 -20 29 -20q20 0 27 20q4 10 4 33l1 188q0 187 -1 187q0 226 -176 340q-17 10 -17 20t15 23q46 36 65 57q101 107 101 256q-3 166 -125 273q-100 90 -215 90q-83 2 -496 2 q-26 0 -36.5 -11t-10.5 -36v-82v-1299zM315 981v223v39v260q0 27 8.5 35t36.5 8q100 2 200 2l200 -2q181 -3 268 -153q39 -70 39 -148q0 -14 -1 -27q-8 -93 -67 -165q-95 -117 -245 -117h-381h-13q-28 0 -36.5 8.5t-8.5 36.5zM383 1147v137v45v4q1 65 37 100t100 37h4h111h4 h10h33q69 0 98 -2q84 -6 143.5 -67t65.5 -148q1 -8 1 -17q0 -70 -46 -130q-51 -68 -131 -88q-45 -10 -80 -10h-98h-86h-27q-11 0 -43 4q-35 8 -60 32.5t-32 59.5q-4 32 -4 43zM448 1238q0 -91 1 -91q0 -21 2 -31q6 -35 41 -41q20 -4 30 -4h113h98q20 0 66 8q57 13 95 63 q33 44 33 92q0 6 -1 13q-5 63 -47 107.5t-105 48.5q-25 2 -92 2h-33q-14 0 -14 2h-111h-4q-38 -1 -54.5 -18.5t-16.5 -55.5v-4z" />
<glyph unicode="S" horiz-adv-x="1417" d="M113 496q0 21 11.5 35t31.5 14q19 0 58 1t60 1q22 0 67 -1t67 -1q20 0 31 -12t20 -35q7 -32 18 -54q40 -74 144 -92q65 -10 116 -10q39 0 109 8q69 8 116 56q48 50 55 112q1 11 1 21q0 52 -27 106q-56 97 -178 100h-43h-55h-43q-135 3 -234 54q-244 128 -274 391 q-3 31 -3 61q0 181 124 322q127 139 301 162q24 6 53 6h8h101q69 0 104 -4q264 -28 387 -246q43 -77 53 -176q1 -8 1 -14q0 -58 -68 -58q-29 -2 -84 -2h-119q-9 0 -21 4q-35 3 -53 37q0 4 -4 8q-32 94 -141 101q-58 4 -84 4q-24 0 -78 -4q-81 -9 -117 -83q-16 -33 -16 -65 q0 -39 24 -76q46 -71 140 -71h35h61h53q164 -7 283 -80q228 -143 258 -400q6 -43 6 -84q0 -229 -188 -399q-127 -115 -306 -131q-8 0 -24.5 -1t-24.5 -1q-13 0 -41 1t-41 1q-27 -2 -79 -2q-74 0 -123 12q-184 39 -303 166q-101 113 -123 271q-3 19 -3 34q0 7 1 13zM178 479 q0 -14 2 -22q17 -130 107 -234q104 -110 268 -147q52 -10 109 -10q12 0 36.5 1t38.5 1h4h41h41h43q153 12 267 114q166 148 166 352q0 36 -5 74q-27 225 -229 350q-104 67 -248 70q-14 2 -51 2h-31h-30h-35q-131 0 -195 100q-34 55 -34 113q0 46 22 94q25 50 70 81.5 t100 37.5q54 4 84 4q22 0 88 -4q74 -5 125 -41t74 -100l4 -4q1 0 3 -1t3 -1h8h41h76h82h4q-9 81 -45 149q-106 186 -338 213q-54 4 -96 4q-34 0 -50 -2h-51h-10q-25 0 -43 -4q-152 -20 -258 -139q-110 -123 -110 -280q0 -26 3 -52q27 -229 238 -340q83 -42 205 -45h43h26h29 q33 0 45 -2q160 -3 234 -133q35 -58 37 -124q0 -5 -1 -10q0 -60 -28 -116q-29 -60 -83 -97.5t-120 -45.5q-58 -9 -117 -9q-52 0 -127 11q-136 24 -192 127q-7 16 -21 53l-2 8q0 2 -2 4h-119h-96zM270 397q5 -25 9 -32q26 -67 73 -111q110 -101 264 -113q60 -5 135 -5 q32 0 68 1q184 3 303 137q104 116 105 264q0 39 -8 80q-25 146 -138.5 241t-263.5 97h-168q-127 2 -212 100q-72 84 -72 187q0 18 2 37q12 94 79 164.5t160 83.5q50 9 109 9q51 0 108 -7q122 -13 191 -90q8 -7 15.5 -16.5t17 -24.5t12.5 -19q21 -34 47 -18q26 13 14 49 q-16 32 -20 37q-97 141 -291 154q-25 1 -54 1t-64 -0.5t-54 -0.5q-80 0 -150 -39q-191 -109 -191 -316q0 -18 1 -37q9 -119 91.5 -208.5t199.5 -108.5q22 -3 143 -8l2 2h84q100 -2 181.5 -54t123.5 -138q35 -71 35 -149q0 -17 -2 -34q-11 -111 -89.5 -196.5t-188.5 -102.5 q-37 -6 -152 -6q-86 0 -127 6q-192 33 -262 188q-12 18 -14 19q-18 7 -33 4q-19 -3 -19 -27z" />
<glyph unicode="T" horiz-adv-x="1384" d="M113 1487v172q0 12 2 18q2 31 16.5 46t46.5 18h15h8h366h619q13 0 41 -4q37 -6 43 -43q4 -20 4 -29v-186q0 -13 -4 -33q-6 -32 -39 -39q-24 -4 -39 -4h-145h-64h-31h-8h-12q-37 -1 -53.5 -18t-16.5 -52q-2 -12 -2 -39v-1206q0 -29 -4 -45q-3 -15 -13.5 -25.5t-25.5 -13.5 q-24 -4 -35 -4h-88h-92q-19 0 -27 2q-43 8 -49 49q-4 24 -4 35v616v617q0 27 -4 41q-6 32 -39 39q-24 4 -37 4h-245q-48 0 -66 17.5t-18 66.5zM178 1468h19h98q98 0 147 -2q34 0 50 -4q36 -8 60 -31.5t30 -58.5q6 -27 6 -53v-500v-112v-5v-108v-508v-20h14h92h88h13 q2 8 2 22v997v220v30q2 62 36 96t97 35l14 2h103h145h16v11v186v10h-22h-619h-374h-11h-4v-4v-10v-39v-135v-19zM242 1573q0 -22 20 -29q20 -4 33 -4h313q37 0 45.5 -8t8.5 -45v-649v-652q0 -22 2 -32q7 -27 30 -27q25 0 31 25q4 14 4 45v1280v30q1 17 8.5 24t24.5 9h26h312 q10 0 30 4q21 6 21 29t-21 29q-16 4 -24 4h-817q-9 0 -25 -4q-19 -5 -22 -29z" />
<glyph unicode="U" horiz-adv-x="1454" d="M113 1124v531q0 51 17.5 68.5t68.5 17.5h63h105h2h18q30 -3 44.5 -18t17.5 -46v-26v-1020q0 -110 61 -185q77 -92 192 -104q8 -2 25 -2q103 0 184 73t88 177q2 14 2 45q0 508 3 1018q0 31 2 45q10 34 41 39q20 4 32 4h92h93q12 0 32 -4q35 -6 41 -41q4 -24 4 -35v-1034 q0 -154 -61 -279q-91 -181 -260 -272q-137 -76 -293 -76q-29 0 -45 2q-208 15 -365 154q-146 133 -188 321q-14 60 -14 131q-2 172 -2 516zM178 608q0 -47 15 -116q38 -172 167 -289q140 -122 326 -137h41q138 0 262 65q150 82 232 246q55 113 55 250v891v143v14h-12h-93 h-92h-10q-2 -6 -2 -22v-582v-436q0 -9 -1 -27t-1 -24q-10 -127 -109.5 -217.5t-228.5 -90.5h-31q-143 15 -235 130q-76 91 -76 225v680v344q0 12 -2 20h-2h-12h-107h-63h-21v-20v-379v-152v-139v-377zM253 751q0 -78 1 -147q0 -216 172 -362q130 -108 300 -108q29 0 60 3 q178 19 300 155t122 316v946v25q-3 32 -30 35q-29 0 -35 -31q-2 -12 -2 -39v-926v-38q-14 -170 -144 -282q-113 -98 -260 -97q-22 0 -45 2q-236 23 -342 252q-33 70 -33 182v909v33q-2 15 -10 25t-20 10q-30 0 -33 -35v-29v-477q0 -53 -0.5 -148.5t-0.5 -173.5z" />
<glyph unicode="V" horiz-adv-x="1648" d="M113 1694q0 37 37 43q20 4 30 4h94h109q4 0 12.5 -1t12.5 -1q47 -6 59 -53q37 -130 88 -306q27 -97 81 -289l81 -288l74 -258q5 -16 20 -39q5 -8 14 -8q10 0 15 8q11 14 18 35q30 93 64 213q26 93 78 278.5t77 278.5q18 66 53 186.5t48 167.5l4 16q11 31 28.5 45t49.5 15 h90h133q8 0 20 -4q35 -9 35 -38q0 -25 -12 -63l-283 -997q-59 -202 -162 -567l-12 -29q-16 -43 -74 -43h-69h-101h-100h-63q-39 0 -59 14t-30 49q-18 58 -100 351q-46 162 -130.5 458t-117.5 412l-104 369q-4 15 -8 41zM182 1671q11 -37 88 -307l19 -61l45 -164l203 -707 l18 -67q8 -27 36.5 -128t45.5 -155q3 -11 6 -14q2 -2 19 -2h63h49h47h4h52h49h69q5 0 10 1l5 1q5 10 8 22q82 285 162 567q152 529 282 998l6 20h-38h-80h-90q-2 0 -6 -1t-5 -1q0 -3 -6 -12q0 -2 -1 -6t-1 -6l-22 -80q-37 -126 -78 -277l-51 -178q-80 -287 -107 -377 q-19 -72 -61 -215q-9 -26 -31 -55q-21 -35 -66 -35q-41 0 -67 37q-24 34 -29 57q-31 102 -74 258q-12 42 -37.5 133.5t-39.5 139.5l-86 305q-11 40 -39.5 140.5t-46.5 164.5q-3 6 -5 6h-2h-2q-6 2 -14 2h-109h-92v-4zM287 1569q5 -26 8 -33l31 -111q219 -745 299 -1015 q12 -40 35 -119t34 -119q7 -25 17 -32t37 -9q16 0 40.5 1t38.5 1q15 0 42 1t42 1q24 0 34 8.5t16 32.5l141 481q43 147 130 443.5t130 443.5q6 15 6 33q0 27 -22 33q-5 2 -10 2q-16 0 -27 -19q-4 -5 -13 -28q-35 -121 -57 -195q-44 -151 -133 -454t-133 -455l-62 -211 q-10 -30 -19.5 -39.5t-37.5 -9.5h-53q-28 0 -38.5 7.5t-17.5 35.5q-5 15 -21.5 71.5t-25.5 85.5l-227 779q-55 184 -111 372q-5 16 -16 39q-14 21 -37 11q-20 -10 -20 -33zM803 342q3 -32 12 -61q3 -6 10 -12.5t11 -6.5t10 6.5t8 12.5t10 55v7q0 44 -35 44q-27 -3 -27 -33 q0 -5 1 -12z" />
<glyph unicode="W" horiz-adv-x="1802" d="M113 498v1157q0 51 18 68.5t70 17.5h65h96h7h12q35 -1 51.5 -17.5t18.5 -50.5v-24v-1125q0 -66 22 -106q39 -74 117 -74q16 0 24 2q44 8 76.5 41.5t38.5 79.5q4 32 4 51v1133q0 31 4 45q6 34 37 41q20 4 33 4h90h98q13 0 19 -2q25 -5 37 -16t16 -37q2 -12 2 -35v-1123 q0 -55 12 -90q17 -45 52 -69.5t77 -24.5q58 0 93 35q47 44 47 121q2 0 1 58l-1 58q0 691 2 1035q0 31 2 45q6 35 41 41q24 4 35 4h88h92q16 0 24 -2q26 -5 37.5 -16t14.5 -37q2 -10 2 -33v-592v-574v-9q0 -168 -105 -300q-125 -155 -319 -176q-18 -2 -56 -2q-106 0 -196 43 q-25 11 -68 37q-21 12 -43 12q-25 0 -47 -14q-97 -61 -190 -74q-50 -4 -74 -4q-174 0 -309 117q-140 122 -164 309q-4 46 -4 72zM178 498q0 -46 4 -64q17 -161 140 -268q118 -100 268 -100q19 0 65 4q78 9 164 63q42 25 82 25q37 0 78 -23l57 -33q76 -36 172 -36q31 0 47 2 q169 18 279 151q90 119 90 268v404v166v4v117v475q0 16 -2 22h-12h-92h-88h-13q-2 -8 -2 -24v-834v-201v-32v-86q-3 -106 -69 -166q-56 -53 -136 -53q-65 0 -115.5 37t-72.5 100q-16 50 -16 112v840v283q0 18 -2 24h-11h-96h-90h-10v-24q0 -94 -1 -283t-1 -283v-567 q0 -41 -4 -61q-8 -66 -53 -115t-111 -61q-12 -2 -37 -2q-54 0 -100 27.5t-74 78.5q-31 54 -31 139v844v287v14v6h-6h-10h-103h-65h-23v-20v-1157zM252 469q0 -156 125 -260q77 -64 172 -77q23 -3 46 -3q69 0 137 30q88 40 147 124q13 20 24 20t25 -20q73 -105 190 -140 q47 -14 94 -14q69 0 138 31q97 42 150 117t54 178q2 184 2 1106q0 14 -2 20q-7 30 -30 27q-25 0 -31 -27q-2 -10 -2 -33v-692v-364q0 -144 -100 -228q-51 -44 -115 -58q-32 -7 -63 -7.5t-61 7.5q-60 14 -112.5 56t-78.5 103q-25 63 -25 141v1036v33q-2 15 -11 25t-22 10 q-28 -3 -31 -35q-2 -12 -2 -35v-1005q0 -51 -2 -78q-9 -118 -98 -195q-68 -58 -155 -64q-10 -1 -20 -1q-77 1 -143 41q-76 46 -110 127q-25 63 -25 137v1040q0 25 -2 35q-3 33 -32 33q-25 -3 -31 -33v-31v-540v-537z" />
<glyph unicode="X" horiz-adv-x="1458" d="M113 84v199v188q3 199 129 367q15 17 28 41q9 13 9 28q0 16 -11 35q-62 87 -86 129q-62 108 -65 219q-2 73 -2.5 206t-1.5 175q0 70 71 70h97h98q72 0 72 -74v-297q0 -90 41 -156q36 -64 100 -100.5t137 -36.5q48 0 92 17q148 56 178 213q7 31 7 59v291q0 49 17 66.5 t67 17.5h65h109h10q37 -2 54.5 -19t17.5 -55l1 -126v-70q0 -56 -1 -56q0 -77 -9 -153q-20 -159 -131 -295q-10 -15 -12 -17q-16 -23 -16 -45q0 -23 18 -45q87 -108 123 -225q27 -96 27 -174v-385q0 -4 -5 -29q-6 -37 -43 -43q-20 -4 -30 -4h-92h-93h-10q-34 1 -49.5 17.5 t-17.5 50.5v47v336q0 123 -88 208q-79 76 -191 76q-61 0 -113 -24q-160 -80 -163 -258q-1 -1 -1 -184l1 -183q0 -51 -17.5 -68.5t-68.5 -17.5h-74h-96q-17 0 -27 2q-26 3 -37 14.5t-16 38.5q-2 10 -2 29zM178 66h17h96h74h20v20v115q0 168 2 254q1 107 52.5 187t146.5 126 q67 31 141 31q67 0 128.5 -24t105.5 -68q108 -105 108 -256v-228v-108v-13q0 -22 2 -32v-4h4h8h93h92h12v10q2 29 2 88q0 197 -2 295q0 73 -23 157q-37 116 -110 203q-35 43 -35 86q0 41 31 82q10 15 12 17l2 2q97 124 115 264q8 65 8 147q2 60 2 120.5t-2 121.5v8v8h-8h-8 h-109h-65h-19q0 -2 -1 -8t-1 -10v-103v-190q0 -40 -6 -70q-38 -192 -219 -260q-58 -22 -115 -22q-90 0 -168.5 45.5t-126.5 124.5q-47 78 -47 186v113q0 125 -2 186v8h-8h-96h-95h-8v-4v-63q0 -212 4 -316q3 -95 56 -190q39 -63 59 -88l25 -37q25 -35 25 -70q0 -30 -19 -61 q-14 -23 -31 -43l-4 -4q-112 -147 -115 -330v-127v-59v-43v-156v-18zM252 1359v-23q0 -29 2 -29q27 -241 235 -369q2 -1 13.5 -7t17.5 -11q15 -12 0 -27q-2 -5 -12 -8q-75 -41 -129 -101q-122 -131 -125 -305q-1 -20 -1 -43t0.5 -51t0.5 -43v-80v-78q0 -43 31 -43h4 q28 0 28 43v58q0 14 0.5 106.5t4.5 140.5q8 117 74 210t172 139q79 34 166 34q28 0 57 -4q151 -20 252.5 -136.5t101.5 -268.5v-266q0 -17 6 -35q7 -21 26 -21h5q22 0 28 25q2 8 2 29v182q0 14 1 38.5t1 44t-2 36.5q-24 257 -254 387l-12 10q-17 14 0 27q6 6 10 8 q77 42 129 100q121 130 127 305v219q0 17 -2 25q-7 25 -28 25h-5q-18 0 -26 -21q-6 -15 -6 -31v-209q0 -19 -4 -55q-29 -170 -171 -270q-109 -76 -230 -77q-37 0 -74 7q-217 40 -310 240q-35 67 -39 178v199q0 18 -9 28.5t-23 10.5t-22.5 -10.5t-8.5 -28.5v-21v-131z" />
<glyph unicode="Y" horiz-adv-x="1464" d="M113 1397v254v16q2 39 18.5 56.5t54.5 17.5h82h111q11 0 31 -4q30 -9 39 -39q4 -24 4 -41v-299q0 -99 57 -174q41 -53 99 -82t122 -29q59 0 115 27q145 66 160 223q4 27 4 127v209q0 13 4 37q6 35 41 41q20 4 32 4h93h96q14 0 22 -2q26 -5 37.5 -16t14.5 -37q2 -8 2 -27 v-297q0 -203 -115 -367q-97 -140 -268 -217l-17 -6q-51 -20 -51 -80v-98v-506q0 -54 -17.5 -71t-72.5 -17h-61h-99h-4h-14q-37 2 -54 18.5t-18 53.5v73v236v299q0 42 -13 61t-52 37q-169 69 -279 228q-91 137 -102 288q-2 33 -2 103zM178 1397q0 -66 2 -99q9 -134 92 -258 q93 -137 250 -202q56 -23 80.5 -60t24.5 -98v-211v-84v-4v-256v-51v-8h8h12h103h61h25v22v338v168v98q0 103 92 139q6 3 8 5q1 0 3 1t3 1q155 68 244 194q100 141 100 330q2 76 2 225q0 49 -2 72v16h-12h-94h-93h-12v-16v-98v-113v-27q0 -69 -4 -104q-18 -192 -199 -277 q-72 -32 -141 -32q-78 0 -150.5 36.5t-121.5 100.5q-69 89 -72 213v174v125q0 12 -2 18h-6h-111h-82h-8v-10v-14v-72v-182zM254 1350v-11q0 -125 63 -229q115 -195 338 -236q30 -5 38.5 -14t8.5 -39v-303v-309q0 -23 8 -32t27 -9t26 9t7 32v31v585q0 26 8 35t33 14 q178 28 293 163t115 315v172v20q-3 27 -31 27h-5q-32 0 -32 -35v-184q0 -190 -145 -314q-90 -80 -207 -98q-33 -6 -65 -6q-83 0 -162 34q-109 47 -177 148q-73 103 -76 242q-1 29 -1 88.5t-1 89.5q0 35 -32 35q-31 0 -31 -35v-186z" />
<glyph unicode="Z" horiz-adv-x="1390" d="M113 1487v172q0 19 2 27q5 27 16 38.5t37 14.5q10 2 33 2h315h180h283h211q53 0 70.5 -17t17.5 -71v-193q0 -54 -31 -102q-40 -56 -118.5 -167.5t-118.5 -166.5q-28 -39 -277 -389q-73 -105 -147 -207q-17 -26 -21 -39q-8 -19 -0.5 -31.5t27.5 -15.5q14 -2 41 -2h557 q17 0 45 -4q31 -9 39 -41q4 -20 4 -33v-184q0 -11 -4 -31q-6 -37 -45 -43q-20 -4 -31 -4h-606h-399h-19q-31 5 -45 18t-14 43q-1 0 -1 126l1 126q2 40 49 103l541 760q66 90 114 161q17 25 9.5 41t-37.5 21q-8 2 -27 2h-78h-47h-440q-51 0 -68.5 17.5t-17.5 68.5zM178 66h4 h11h399h606h14v12v184v10q-8 2 -22 2h-297h-260q-11 0 -51 5q-53 10 -74 47q-12 23 -12 47q0 20 8 41q3 7 28 51q83 118 119 166l29 41l98 139l178 250q19 26 57 81t58 81l123 172q18 27 18 65v121v72v22h-22h-211h-463h-315h-23v-16v-172v-19q4 -2 21 -2h303h184h78 q7 0 19 -1t18 -1q66 -12 86 -61q8 -19 8 -38q0 -31 -21 -62q-46 -69 -100 -142l-16 -24q-31 -42 -207 -291q-150 -207 -334 -469q-6 -6 -8 -10q-29 -41 -29 -56q-2 -76 -2 -245zM252 1573q0 22 22 29q10 2 33 2h363h409h27q36 -3 39 -37q0 -62 -2 -119q0 -18 -21 -47 q-35 -55 -403.5 -566t-380.5 -528q-4 -5 -10 -13t-7.5 -11.5t-1.5 -8.5q1 -11 1.5 -20.5t1.5 -20.5q0 -20 7 -27.5t29 -8.5h729q25 0 35 -2q23 -7 23 -31q0 -22 -23 -29q-10 -2 -32 -2q0 -1 -182 -1l-181 1q-38 0 -125 -0.5t-158.5 -0.5t-124.5 1h-28q-37 3 -37 37 q-1 30 -1 59.5t1 59.5q0 21 20 45q36 56 406 569.5t379 526.5q4 5 8 10.5t5.5 8t3 6t1.5 7.5v41q-2 20 -9.5 28t-29.5 9h-729q-23 0 -35 2q-22 6 -22 31zM383 256q-2 -3 -2 -6q1 -4 3 -8q3 -5 9 -4h4q27 6 72 36q4 1 5 10t-1 13q-8 12 -16 16q-13 0 -19 -6q-35 -23 -55 -51z M932 1430q1 -6 7 -11.5t9 -5.5q2 -1 4 -1q6 0 15 5q3 2 12.5 9.5t12.5 10t9.5 8.5t10.5 11t8 12q3 4 3 8q1 3 -1 6q-4 5 -10 5h-4q-13 -2 -23.5 -6t-27 -14.5t-23.5 -14.5q-6 -6 -6 -12q0 -5 4 -10z" />
<glyph unicode="&#x2000;" horiz-adv-x="870" />
<glyph unicode="&#x2001;" horiz-adv-x="1741" />
<glyph unicode="&#x2002;" horiz-adv-x="870" />
<glyph unicode="&#x2003;" horiz-adv-x="1741" />
<glyph unicode="&#x2004;" horiz-adv-x="580" />
<glyph unicode="&#x2005;" horiz-adv-x="435" />
<glyph unicode="&#x2006;" horiz-adv-x="290" />
<glyph unicode="&#x2007;" horiz-adv-x="290" />
<glyph unicode="&#x2008;" horiz-adv-x="217" />
<glyph unicode="&#x2009;" horiz-adv-x="348" />
<glyph unicode="&#x200a;" horiz-adv-x="96" />
<glyph unicode="&#x202f;" horiz-adv-x="348" />
<glyph unicode="&#x205f;" horiz-adv-x="435" />
<glyph unicode="&#xe000;" horiz-adv-x="1024" d="M0 0z" />
</font>
</defs>
</svg>
